<?xml version="1.0" encoding="UTF-8"?>
<!DOCTYPE svg PUBLIC "-//W3C//DTD SVG 1.1//EN" "http://www.w3.org/Graphics/SVG/1.1/DTD/svg11.dtd">
<!-- Creator: CorelDRAW X8 -->
<svg xmlns="http://www.w3.org/2000/svg" xml:space="preserve" width="39.8611in" height="27.7778in" version="1.1" style="shape-rendering:geometricPrecision; text-rendering:geometricPrecision; image-rendering:optimizeQuality; fill-rule:evenodd; clip-rule:evenodd"
viewBox="0 0 39861 27778"
 xmlns:xlink="http://www.w3.org/1999/xlink">
 <defs>
  <style type="text/css">
   <![CDATA[
    .fil22 {fill:#193666;fill-rule:nonzero}
    .fil17 {fill:#213F7A;fill-rule:nonzero}
    .fil12 {fill:#2A4E96;fill-rule:nonzero}
    .fil16 {fill:#2C3A64;fill-rule:nonzero}
    .fil10 {fill:#67B749;fill-rule:nonzero}
    .fil18 {fill:#80C16B;fill-rule:nonzero}
    .fil9 {fill:#84CE6B;fill-rule:nonzero}
    .fil5 {fill:#95D683;fill-rule:nonzero}
    .fil6 {fill:#9BCC8F;fill-rule:nonzero}
    .fil21 {fill:#B2443B;fill-rule:nonzero}
    .fil4 {fill:#BFE8B5;fill-rule:nonzero}
    .fil25 {fill:#CC5E12;fill-rule:nonzero}
    .fil19 {fill:#D39E7A;fill-rule:nonzero}
    .fil2 {fill:#DFEBFA;fill-rule:nonzero}
    .fil20 {fill:#EA9C68;fill-rule:nonzero}
    .fil23 {fill:#EBEEF2;fill-rule:nonzero}
    .fil1 {fill:#EBF3FA;fill-rule:nonzero}
    .fil13 {fill:#ED7D2B;fill-rule:nonzero}
    .fil3 {fill:#EEF6FF;fill-rule:nonzero}
    .fil14 {fill:#F4A671;fill-rule:nonzero}
    .fil7 {fill:#F7FCFF;fill-rule:nonzero}
    .fil8 {fill:#F8FBFF;fill-rule:nonzero}
    .fil24 {fill:#F99746;fill-rule:nonzero}
    .fil0 {fill:#FDFFFF;fill-rule:nonzero}
    .fil11 {fill:#FFB27D;fill-rule:nonzero}
    .fil15 {fill:white;fill-rule:nonzero}
   ]]>
  </style>
 </defs>
 <g id="Layer_x0020_1">
  <metadata id="CorelCorpID_0Corel-Layer"/>
  <polygon class="fil0" points="0,27778 39861,27778 39861,0 0,0 "/>
  <polygon class="fil1" points="723,26602 38994,26602 38994,792 723,792 "/>
  <path class="fil2" d="M20036 8675l-1008 0 0 -1842c-12,-7 -24,-14 -36,-22l-233 0 0 -1 -1356 0 0 1 -1 0 0 276 1 0 0 190 -1 0 0 276 1 0 0 191 -1 0 0 276 1 0 0 1 -144 -1 0 -1444 -1522 0 0 183 -1 0 0 276 1 0 0 242 -1 0 0 276 1 0 0 191 -1 0 0 276 1 0 0 176 -1 0 0 276 1 0 0 177 -1 0 0 276 1 0 0 166 -1 0 0 175 1 0 0 19 -1716 0 0 1580 -640 0 0 398 -691 0 0 -685 -1244 0 0 -1862 -194 0 0 -186 -28 0 0 186 -161 0 0 -1 -806 0 0 -185 -28 0 0 185 -210 0 0 937 -1044 -5 0 578 -886 0 0 -3574 -2622 0 0 3829 -801 0 0 -2070 -2623 0 0 13392 18374 -226 -381 -12901z"/>
  <polygon class="fil2" points="2045,10848 2045,21710 728,21710 728,10848 "/>
  <polygon class="fil3" points="6141,7444 7958,7444 7958,6880 6141,6880 "/>
  <polygon class="fil3" points="6141,8312 7958,8312 7958,7748 6141,7748 "/>
  <polygon class="fil3" points="6141,9198 7958,9198 7958,8634 6141,8634 "/>
  <polygon class="fil3" points="6141,10098 7958,10098 7958,9534 6141,9534 "/>
  <polygon class="fil3" points="6141,10967 7958,10967 7958,10403 6141,10403 "/>
  <polygon class="fil2" points="14341,9299 14389,9299 14389,8548 14341,8548 "/>
  <polygon class="fil2" points="15155,9357 15230,9357 15230,7904 15155,7904 "/>
  <polygon class="fil2" points="5641,6651 5672,6651 5672,6384 5641,6384 "/>
  <polygon class="fil2" points="6305,6651 6336,6651 6336,6384 6305,6384 "/>
  <polygon class="fil2" points="7827,6651 7858,6651 7858,6384 7827,6384 "/>
  <polygon class="fil2" points="15888,6576 15912,6576 15912,6369 15888,6369 "/>
  <polygon class="fil2" points="17031,6576 17055,6576 17055,6369 17031,6369 "/>
  <polygon class="fil2" points="7232,6651 7263,6651 7263,6384 7232,6384 "/>
  <polygon class="fil3" points="15900,7211 16133,7211 16133,6812 15900,6812 "/>
  <polygon class="fil3" points="16711,7885 16944,7885 16944,7486 16711,7486 "/>
  <polygon class="fil3" points="18529,7885 18762,7885 18762,7486 18529,7486 "/>
  <polygon class="fil3" points="17814,9498 18047,9498 18047,9099 17814,9099 "/>
  <polygon class="fil3" points="19218,9498 19451,9498 19451,9099 19218,9099 "/>
  <polygon class="fil3" points="19218,12253 19451,12253 19451,11854 19218,11854 "/>
  <polygon class="fil3" points="9200,12253 9433,12253 9433,11854 9200,11854 "/>
  <polygon class="fil3" points="9200,10374 9433,10374 9433,9975 9200,9975 "/>
  <polygon class="fil3" points="2656,9498 2889,9498 2889,9099 2656,9099 "/>
  <polygon class="fil3" points="3443,10602 3676,10602 3676,10204 3443,10204 "/>
  <polygon class="fil3" points="3901,9116 4134,9116 4134,8717 3901,8717 "/>
  <polygon class="fil3" points="10877,10374 11109,10374 11109,9975 10877,9975 "/>
  <polygon class="fil3" points="10200,11232 10432,11232 10432,10833 10200,10833 "/>
  <polygon class="fil3" points="16017,8651 16249,8651 16249,8252 16017,8252 "/>
  <polygon class="fil3" points="16789,10573 17022,10573 17022,10174 16789,10174 "/>
  <polygon class="fil3" points="14437,10573 14670,10573 14670,10174 14437,10174 "/>
  <polygon class="fil3" points="10877,9327 11109,9327 11109,8928 10877,8928 "/>
  <path class="fil2" d="M38960 8655l-989 0 0 -1842c-13,-7 -26,-14 -39,-21l-246 0 0 -1 -1432 0 0 1 -1 0 0 276 1 0 0 189 -1 0 0 277 1 0 0 190 -1 0 0 276 1 0 0 1 -152 -1 0 -1444 -1607 0 0 183 -1 0 0 276 1 0 0 242 -1 0 0 277 1 0 0 190 -1 0 0 276 1 0 0 177 -1 0 0 276 1 0 0 176 -1 0 0 276 1 0 0 166 -1 0 0 175 1 0 0 20 -1812 0 0 1580 -677 0 0 398 -729 0 0 -686 -1313 0 0 -1862 -205 0 0 -186 -30 0 0 186 -170 0 0 0 -851 0 0 -186 -30 0 0 186 -222 0 0 936 -1102 -5 0 578 -935 0 0 -3573 -2770 0 0 3828 -845 0 0 -2070 -2770 0 0 13392 18926 -72 0 -13055z"/>
  <polygon class="fil2" points="20036,10828 20036,21690 18645,21690 18645,10828 "/>
  <polygon class="fil2" points="33021,9279 33072,9279 33072,8529 33021,8529 "/>
  <polygon class="fil2" points="33881,9337 33960,9337 33960,7884 33881,7884 "/>
  <polygon class="fil2" points="23833,6632 23866,6632 23866,6364 23833,6364 "/>
  <polygon class="fil2" points="24534,6632 24567,6632 24567,6364 24534,6364 "/>
  <polygon class="fil2" points="26142,6632 26175,6632 26175,6364 26142,6364 "/>
  <polygon class="fil2" points="34655,6556 34680,6556 34680,6349 34655,6349 "/>
  <polygon class="fil2" points="35861,6556 35887,6556 35887,6349 35861,6349 "/>
  <polygon class="fil2" points="25513,6632 25546,6632 25546,6364 25513,6364 "/>
  <polygon class="fil3" points="28726,9303 28959,9303 28959,8904 28726,8904 "/>
  <polygon class="fil3" points="33169,10202 33402,10202 33402,9803 33169,9803 "/>
  <polygon class="fil3" points="35322,10202 35555,10202 35555,9803 35322,9803 "/>
  <polygon class="fil3" points="29223,10202 29456,10202 29456,9803 29223,9803 "/>
  <polygon class="fil3" points="19524,11904 19757,11904 19757,11505 19524,11505 "/>
  <polygon class="fil3" points="20493,13401 20726,13401 20726,13002 20493,13002 "/>
  <polygon class="fil3" points="21357,12452 21590,12452 21590,12053 21357,12053 "/>
  <polygon class="fil3" points="34813,7208 35045,7208 35045,6809 34813,6809 "/>
  <polygon class="fil3" points="35555,8176 35788,8176 35788,7777 35555,7777 "/>
  <polygon class="fil3" points="36527,7607 36759,7607 36759,7208 36527,7208 "/>
  <polygon class="fil4" points="734,26602 38994,26602 38994,15258 734,15258 "/>
  <path class="fil5" d="M700 15981c0,0 2161,-469 3069,477 908,945 915,2024 1818,1915 902,-108 1973,629 1865,1448 -108,819 -2318,1098 -2354,1123 -35,25 -4372,-676 -4372,-676l-26 -4287z"/>
  <path class="fil6" d="M723 13448c0,0 1366,-400 2439,-218 1074,182 1200,1159 2211,959 1010,-201 1819,-183 2371,196 553,380 2052,-15 2920,-60 868,-46 2431,698 2889,652 457,-45 1562,-155 1641,347l-14472 0 1 -1876z"/>
  <path class="fil6" d="M38960 7594c0,0 -1335,-426 -2144,382 -809,807 -276,1265 -1085,1640 -808,374 -2134,485 -2474,1358 -258,664 453,1335 -130,1650 -582,315 -2345,-224 -2733,978 -388,1201 -1099,632 -1754,617 -655,-16 -1336,314 -1255,1105l11575 0 0 -7730z"/>
  <path class="fil7" d="M16437 3527l-14449 -94c0,0 649,-761 2186,-761 85,0 173,2 264,7 0,0 1221,-688 2867,-688 714,0 1507,129 2316,500 0,0 761,-81 1787,-81 957,0 2145,70 3161,344 1404,377 1868,773 1868,773z"/>
  <path class="fil8" d="M23866 3527c0,-443 360,-803 804,-803 444,0 804,360 804,803 0,444 -360,804 -804,804 -444,0 -804,-360 -804,-804z"/>
  <path class="fil7" d="M38994 4188l-7664 -50c0,0 608,-714 2049,-714 80,0 163,2 248,7 0,0 1144,-645 2688,-645 669,0 1412,121 2170,468 0,0 191,-20 509,-40l0 974z"/>
  <path class="fil7" d="M22310 5117l-6095 -40c0,0 273,-321 922,-321 36,0 73,1 111,3 0,0 515,-290 1210,-290 301,0 635,54 977,210 0,0 321,-34 754,-34 403,0 905,30 1333,145 593,160 788,327 788,327z"/>
  <path class="fil9" d="M39008 17580l-14 9022 -24087 42 -7585 13 -6599 -55 3 -6334c690,26 1411,42 2107,29 599,-11 1196,-36 1784,-70 957,-55 1890,-137 2770,-232 144,-16 286,-32 427,-48 422,-48 829,-100 1219,-152 423,-57 824,-115 1201,-173 1127,-173 2028,-342 2583,-454 311,-64 513,-109 585,-128 10676,-2819 25606,-1460 25606,-1460z"/>
  <path class="fil9" d="M29339 17827c0,0 425,-2631 772,-2096 347,535 -772,2096 -772,2096z"/>
  <path class="fil9" d="M29694 17765c0,0 803,-1439 978,-1271 176,168 -978,1271 -978,1271z"/>
  <path class="fil9" d="M29140 17845c-3,-24 66,-2094 -446,-1866 -512,227 446,1866 446,1866z"/>
  <path class="fil5" d="M3315 24916c0,0 609,-3780 1108,-3011 498,768 -1108,3011 -1108,3011z"/>
  <path class="fil5" d="M3824 24827c0,0 1153,-2067 1405,-1826 253,241 -1405,1826 -1405,1826z"/>
  <path class="fil5" d="M3028 24942c-4,-35 95,-3008 -641,-2681 -736,327 641,2681 641,2681z"/>
  <path class="fil5" d="M27783 25883c0,0 518,-3212 942,-2559 423,653 -942,2559 -942,2559z"/>
  <path class="fil5" d="M28216 25808c0,0 980,-1757 1194,-1552 215,204 -1194,1552 -1194,1552z"/>
  <path class="fil5" d="M27540 25905c-4,-29 80,-2556 -545,-2278 -625,278 545,2278 545,2278z"/>
  <path class="fil9" d="M2332 20759c0,0 487,-2620 821,-2077 334,542 -821,2077 -821,2077z"/>
  <path class="fil9" d="M2688 20705c0,0 836,-1419 1008,-1247 172,172 -1008,1247 -1008,1247z"/>
  <path class="fil9" d="M2133 20773c-3,-25 115,-2093 -402,-1877 -518,216 402,1877 402,1877z"/>
  <path class="fil10" d="M29849 26602c0,0 274,-1509 2444,-2043 2171,-535 2129,-2444 3966,-3388 1836,-945 2735,-700 2735,-700l0 6131 -9145 0z"/>
  <path class="fil5" d="M31391 16401c0,0 420,-604 1067,-571 647,32 809,-453 1634,-292 825,162 679,515 1165,549 485,34 358,-366 955,-441 597,-75 1325,345 1762,216 437,-129 1020,-179 1020,-179l0 842c0,0 -5094,191 -5790,152 -697,-39 -2331,5 -1813,-276z"/>
  <path class="fil11" d="M22214 7540c0,0 -1467,2445 -2006,2622 -539,177 -2092,824 -2092,824l108 396c0,0 1785,-232 2201,-374 415,-143 2146,-1881 2146,-1881l-357 -1587z"/>
  <path class="fil11" d="M21989 21108c0,0 333,213 954,83 0,0 801,-1855 697,-3122 -36,-436 1383,-4174 1086,-4811 -297,-638 -2700,286 -2700,286 0,0 204,3393 180,4525 -21,1026 -217,3039 -217,3039z"/>
  <path class="fil11" d="M23431 13595c0,0 2071,5385 2253,7488 0,0 277,219 949,-157 0,0 225,-2212 -165,-3182 -390,-971 316,-4038 -677,-4700 -993,-662 -2360,551 -2360,551z"/>
  <path class="fil11" d="M28122 12879c0,0 67,167 62,328 -5,162 157,520 220,475 62,-45 -15,-167 68,-179 84,-12 359,374 447,299 88,-74 111,-245 -30,-546 -141,-302 -394,-561 -394,-561l-373 184z"/>
  <path class="fil11" d="M26072 7590c0,0 594,434 667,562 275,485 797,1432 1148,2380 443,1199 669,2259 669,2259l-400 197c0,0 -983,-1881 -1066,-2151 -83,-270 -1527,-2109 -1527,-2109l509 -1138z"/>
  <path class="fil12" d="M21957 13144l83 4178c845,202 2023,0 2023,0l208 -1047 0 2 332 1037c1053,70 2189,-346 2189,-346 -332,-2896 -596,-3644 -596,-3644l-4239 -180z"/>
  <path class="fil13" d="M22233 9461c-396,-233 -811,-961 -811,-961 509,-712 792,-960 792,-960 0,0 401,-395 1104,-420 958,-33 2317,8 2781,309 290,188 802,780 1033,1247 0,0 -106,678 -921,917l-34 287 -5 36c-92,771 -70,1551 68,2314l222 1236c4,20 6,41 6,62 0,159 -109,303 -269,342 0,0 -37,6 -105,15 -456,64 -2392,278 -3555,120 -335,-46 -695,-35 -668,-373l362 -4171z"/>
  <path class="fil11" d="M23791 7554c282,75 829,62 1111,-323 42,-56 9,-140 -21,-203 -59,-128 -162,-379 -226,-722 -40,-214 -65,-465 -56,-743l-1040 586c0,0 29,97 52,241 6,41 12,86 16,133 9,95 13,200 4,307 -3,43 -8,86 -16,128 -9,50 -21,99 -37,147 -68,202 7,395 213,449z"/>
  <path class="fil14" d="M23631 6830c880,-150 1024,-524 1024,-524l-1028 217c9,95 13,200 4,307z"/>
  <path class="fil11" d="M23309 6634c0,0 1216,270 1594,-704 407,-1051 -115,-1784 -526,-1819 -819,-69 -1280,261 -1411,595 -130,335 -328,1785 343,1928z"/>
  <path class="fil15" d="M23765 6076c0,0 -46,126 -366,69 0,0 -269,-48 -244,-189 0,0 274,-72 610,120z"/>
  <path class="fil16" d="M24701 6274c0,0 125,-420 99,-641 0,0 298,-413 111,-505 -187,-92 -276,149 -320,104 -44,-45 -140,-829 -362,-796 -221,34 -1033,322 -1406,25 -373,-297 453,-1546 1954,-1136 1502,411 1264,2071 -76,2949z"/>
  <path class="fil16" d="M25534 3943c0,0 60,-203 -18,-344 0,0 4,198 -70,288 -74,91 88,56 88,56z"/>
  <path class="fil16" d="M25498 3804c0,0 183,-28 275,109 0,0 -133,-82 -260,16l-15 -125z"/>
  <path class="fil16" d="M24063 17322l208 -1047 -333 -997c0,0 -360,1221 125,2044z"/>
  <path class="fil15" d="M22943 21191c0,0 -509,1264 -464,1425 45,162 66,431 -3,434 -69,2 -343,0 -343,0 0,0 -291,-48 -390,2 0,0 -763,0 -853,0 -90,0 281,-307 649,-496 368,-188 365,-146 450,-1448 0,0 216,64 469,93 234,27 485,-10 485,-10z"/>
  <path class="fil15" d="M26633 20926c0,0 -151,1529 -106,1690 45,162 66,431 -3,434 -69,2 -343,0 -343,0 0,0 -291,-48 -390,2 0,0 -763,0 -853,0 -90,0 281,-307 649,-496 369,-188 159,-721 88,-1560 0,0 239,45 487,51 193,4 471,-121 471,-121z"/>
  <path class="fil11" d="M18116 10986c0,0 -391,-22 -492,0 -101,22 -549,228 -433,273 115,45 354,-9 339,0 -14,9 -269,219 -358,233 -90,14 -214,130 -112,173 102,44 355,174 622,58 267,-115 542,-341 542,-341l-108 -396z"/>
  <path class="fil17" d="M21810 22375c0,0 -529,239 -739,290 -209,51 -289,334 -274,387 14,54 1705,62 1792,0 87,-62 -81,-639 -80,-640 0,-2 -287,-139 -699,-37z"/>
  <path class="fil17" d="M25828 22375c0,0 -528,239 -738,290 -209,51 -289,334 -274,387 14,54 1705,62 1792,0 87,-62 -81,-639 -81,-640 1,-2 -286,-139 -699,-37z"/>
  <path class="fil17" d="M17359 11784c-445,-278 -1044,-1122 -1791,-2322 -555,-892 -985,-1714 -989,-1722l40 -21c4,9 433,829 988,1719 732,1177 1348,1942 1781,2213l-29 133z"/>
  <path class="fil17" d="M17388 10491l57 -198c1465,-800 1856,-2117 1861,-2131l29 10c-5,14 -464,1509 -1947,2319z"/>
  <path class="fil17" d="M16578 10901l-100 -92c-1105,51 -1780,-561 -1787,-567l-13 16c7,6 781,695 1900,643z"/>
  <path class="fil17" d="M19013 16901c-87,0 -178,-2 -271,-5l2 -52c1777,62 2459,-511 2465,-516 -26,23 -602,573 -2196,573z"/>
  <path class="fil5" d="M18234 7195c-351,105 -769,-256 -769,-256 0,0 152,-530 503,-635 351,-105 769,255 769,255 0,0 -151,531 -503,636z"/>
  <path class="fil18" d="M18737 6559l-1272 380c0,0 152,-530 503,-635 351,-105 769,255 769,255z"/>
  <path class="fil5" d="M19221 9401c-216,-22 -362,-314 -362,-314 0,0 203,-256 419,-234 216,23 363,315 363,315 0,0 -204,256 -420,233z"/>
  <path class="fil18" d="M19641 9168l-782 -81c0,0 203,-256 419,-234 216,23 363,315 363,315z"/>
  <path class="fil5" d="M14142 7782c-184,-171 -117,-545 -117,-545 0,0 368,-95 553,76 185,172 117,545 117,545 0,0 -368,96 -553,-76z"/>
  <path class="fil18" d="M14695 7858l-670 -621c0,0 368,-95 553,76 185,172 117,545 117,545z"/>
  <path class="fil5" d="M19724 15201c-97,-231 118,-541 118,-541 0,0 371,64 468,295 97,230 -117,541 -117,541 0,0 -372,-65 -469,-295z"/>
  <path class="fil18" d="M20193 15496l-351 -836c0,0 371,64 468,295 97,230 -117,541 -117,541z"/>
  <path class="fil5" d="M20752 15184c247,40 396,386 396,386 0,0 -251,281 -498,241 -247,-41 -396,-387 -396,-387 0,0 251,-281 498,-240z"/>
  <path class="fil18" d="M20254 15424l894 146c0,0 -251,281 -498,241 -247,-41 -396,-387 -396,-387z"/>
  <path class="fil5" d="M21037 16068c138,-136 423,-71 423,-71 0,0 60,286 -78,422 -138,136 -423,71 -423,71 0,0 -60,-286 78,-422z"/>
  <path class="fil18" d="M20959 16490l501 -493c0,0 60,286 -78,422 -138,136 -423,71 -423,71z"/>
  <path class="fil5" d="M20418 16345c3,-154 201,-276 201,-276 0,0 193,129 191,283 -3,154 -201,275 -201,275 0,0 -193,-128 -191,-282z"/>
  <path class="fil18" d="M20609 16627l10 -558c0,0 193,129 191,283 -3,154 -201,275 -201,275z"/>
  <path class="fil5" d="M14612 8557c-171,61 -388,-106 -388,-106 0,0 61,-267 232,-328 171,-62 388,105 388,105 0,0 -61,267 -232,329z"/>
  <path class="fil18" d="M14844 8228l-620 223c0,0 61,-267 232,-328 171,-62 388,105 388,105z"/>
  <path class="fil5" d="M14356 10127c-94,-156 28,-402 28,-402 0,0 274,8 367,164 94,155 -27,401 -27,401 0,0 -274,-8 -368,-163z"/>
  <path class="fil18" d="M14724 10290l-340 -565c0,0 274,8 367,164 94,155 -27,401 -27,401z"/>
  <path class="fil5" d="M14800 10578c96,-91 288,-44 288,-44 0,0 38,195 -57,286 -95,91 -288,43 -288,43 0,0 -38,-194 57,-285z"/>
  <path class="fil18" d="M14743 10863l345 -329c0,0 38,195 -57,286 -95,91 -288,43 -288,43z"/>
  <path class="fil5" d="M14863 7925c66,-108 257,-111 257,-111 0,0 83,173 16,280 -67,108 -258,111 -258,111 0,0 -82,-172 -15,-280z"/>
  <path class="fil18" d="M14878 8205l242 -391c0,0 83,173 16,280 -67,108 -258,111 -258,111z"/>
  <path class="fil5" d="M19743 8133c-145,161 -468,108 -468,108 0,0 -86,-316 59,-477 145,-161 468,-108 468,-108 0,0 86,316 -59,477z"/>
  <path class="fil18" d="M19802 7656l-527 585c0,0 -86,-316 59,-477 145,-161 468,-108 468,-108z"/>
  <path class="fil5" d="M19224 8239c48,111 -54,261 -54,261 0,0 -178,-29 -226,-140 -48,-110 54,-260 54,-260 0,0 179,29 226,139z"/>
  <path class="fil18" d="M18998 8100l172 400c0,0 -178,-29 -226,-140 -48,-110 54,-260 54,-260z"/>
  <path class="fil17" d="M17388 17133l-58 -197c-1465,-800 -1856,-2118 -1861,-2131l-28 9c4,14 463,1509 1947,2319z"/>
  <path class="fil5" d="M15554 16044c216,-23 363,-315 363,-315 0,0 -204,-256 -420,-233 -216,22 -362,315 -362,315 0,0 203,255 419,233z"/>
  <path class="fil18" d="M15135 15811l782 -82c0,0 -204,-256 -420,-233 -216,22 -362,315 -362,315z"/>
  <path class="fil5" d="M15032 14775c145,161 468,108 468,108 0,0 87,-315 -59,-477 -145,-161 -467,-107 -467,-107 0,0 -87,315 58,476z"/>
  <path class="fil18" d="M14974 14299l526 584c0,0 87,-315 -59,-477 -145,-161 -467,-107 -467,-107z"/>
  <path class="fil5" d="M15551 14882c-48,110 54,260 54,260 0,0 179,-29 226,-139 48,-111 -53,-261 -53,-261 0,0 -179,29 -227,140z"/>
  <path class="fil18" d="M15778 14742l-173 400c0,0 179,-29 226,-139 48,-111 -53,-261 -53,-261z"/>
  <path class="fil5" d="M16998 6269c341,134 447,676 447,676 0,0 -447,323 -788,188 -341,-134 -447,-676 -447,-676 0,0 448,-323 788,-188z"/>
  <path class="fil18" d="M16210 6457l1235 488c0,0 -447,323 -788,188 -341,-134 -447,-676 -447,-676z"/>
  <polygon class="fil17" points="17059,20926 17462,6033 17688,20926 "/>
  <path class="fil5" d="M17930 5458c0,367 -465,664 -465,664 0,0 -465,-297 -465,-664 0,-366 465,-663 465,-663 0,0 465,297 465,663z"/>
  <path class="fil18" d="M17465 4795l0 1327c0,0 -465,-297 -465,-664 0,-366 465,-663 465,-663z"/>
  <path class="fil17" d="M17485 17746l0 -161c6,-2 611,-272 1318,-790 652,-478 1528,-1270 1996,-2333l16 7c-473,1074 -1325,1887 -1982,2368 -712,521 -1342,906 -1348,909z"/>
  <path class="fil5" d="M20392 14086c14,-290 394,-507 394,-507 0,0 356,253 342,543 -14,290 -393,507 -393,507 0,0 -357,-253 -343,-543z"/>
  <path class="fil18" d="M20735 14629l51 -1050c0,0 356,253 342,543 -14,290 -393,507 -393,507z"/>
  <path class="fil19" d="M14036 21699c0,0 756,-1372 2180,-1380 1425,-9 1266,1163 2601,675 1334,-487 2137,437 2139,918 1,481 -8596,1105 -6920,-213z"/>
  <path class="fil19" d="M18336 19919c0,0 373,-422 1072,-423 699,-1 619,360 1274,212 656,-149 1048,137 1048,285 0,148 -4219,330 -3394,-74z"/>
  <path class="fil20" d="M11820 22234c51,494 -861,1305 -1356,1305l-3227 0 135 -232 228 -389c0,0 1183,-566 1817,-773 147,-50 266,-80 329,-76 0,0 -1888,-1597 -1563,-2851 160,-613 2239,-503 2239,-503 0,0 1191,1647 1398,3519z"/>
  <path class="fil11" d="M13076 15159l-1079 -352 375 -746c0,0 296,-103 654,-392 150,-121 311,-275 466,-468l363 994c0,0 -76,48 -174,132 -106,91 -238,224 -330,381 -79,136 -162,282 -275,451z"/>
  <path class="fil20" d="M13351 14708c-383,-374 -325,-1039 -325,-1039l655 658c-106,91 -238,224 -330,381z"/>
  <path class="fil11" d="M13744 14666c0,0 -975,-519 -669,-1392 331,-943 1105,-1137 1402,-924 591,426 712,913 608,1214 -105,300 -806,1392 -1341,1102z"/>
  <path class="fil11" d="M13253 22627c55,490 -355,912 -850,912l-4072 0c0,0 -26,-202 42,-363 30,-76 228,-258 228,-258 0,0 1644,-523 2497,-735 224,-59 397,-93 469,-88 0,0 -3300,-1648 -2907,-2755 216,-600 2632,-625 2632,-625 0,0 1758,2036 1961,3912z"/>
  <path class="fil13" d="M15167 13346c0,0 -917,547 -1389,173 0,0 -55,-317 -218,-259 -163,58 -91,241 -107,284 -17,43 -443,241 -484,170 -40,-72 -1012,-731 -247,-1449 764,-718 1598,-684 1898,-420 300,264 796,1317 547,1501z"/>
  <path class="fil13" d="M13704 11875c0,0 383,-1395 -132,-1526 -515,-131 -488,-711 -818,-804 -330,-93 -596,164 -900,-27 -305,-190 -745,-13 -773,379 -27,392 -395,403 -315,772 80,369 -38,547 -144,894 -106,348 36,868 409,776 374,-92 526,352 912,276 386,-75 516,-534 779,-350 263,184 982,-390 982,-390z"/>
  <path class="fil21" d="M13746 11704c0,0 -286,625 -1024,561 0,0 438,261 738,64 300,-197 286,-625 286,-625z"/>
  <path class="fil13" d="M8725 17738c0,0 -1079,1212 -475,3840 0,0 2019,949 4095,-1366 0,0 -537,-1341 -664,-1505 -126,-164 -2956,-969 -2956,-969z"/>
  <path class="fil15" d="M12948 17614c-136,281 -278,551 -408,789 -293,534 -529,910 -529,910 -713,331 -2023,-512 -2640,-822 -973,-488 -1031,-838 -291,-1863l2 -4c399,-554 765,-998 996,-1272 899,-1065 2294,-1291 2294,-1291 491,-110 1221,1085 1221,1085 191,518 -202,1557 -645,2468z"/>
  <path class="fil22" d="M7599 22918c0,0 -263,336 -173,621l-90 0 -1741 -5c0,0 132,-478 641,-408 510,69 670,-277 991,-310 309,-32 369,90 373,100l-1 2z"/>
  <path class="fil17" d="M8601 22918c0,0 -262,336 -172,621l-91 0 -1740 -5c0,0 131,-478 641,-408 509,69 670,-277 991,-310 308,-32 368,90 373,100l-2 2z"/>
  <path class="fil11" d="M15128 20176c0,0 1002,219 943,305 -60,87 -593,74 -700,80 -106,7 87,173 -6,200 -94,27 -486,-253 -486,-253l249 -332z"/>
  <path class="fil23" d="M12948 17614c-136,281 -278,551 -408,789 -938,-811 -1262,-2601 -1262,-2601l544 -256 1126 2068z"/>
  <path class="fil11" d="M11575 15351c0,0 1139,3139 1559,3639 419,499 1745,1518 1745,1518l356 -220c0,0 -1358,-1845 -1489,-2457 -245,-1146 -617,-2627 -1024,-2672 -408,-45 -1147,192 -1147,192z"/>
  <path class="fil15" d="M11575 14930c-7,2 -462,177 -332,750 130,573 817,1453 817,1453l1517 -643c0,0 -320,-1731 -1056,-1782 -736,-51 -946,222 -946,222z"/>
  <path class="fil24" d="M33132 23258l-2736 0c-152,0 -273,-127 -266,-279l27 -571 3 -66 23 -487 46 -999 51 -1082 21 -447 3 -66 22 -462c6,-142 124,-253 266,-253l2312 0c142,0 258,110 266,251l5 91 20 365 0 8 4 64 0 2 94 1731 31 557 39 727 3 66 32 569c8,152 -114,281 -266,281z"/>
  <path class="fil13" d="M33251 21711l-276 -210c4,-5 354,-464 668,-984 552,-918 502,-1196 473,-1259 -29,-64 -74,-105 -142,-128 -275,-96 -791,118 -950,200l-159 -308c76,-39 759,-381 1223,-220 157,55 276,163 344,313 177,391 -197,1091 -494,1583 -323,536 -672,994 -687,1013z"/>
  <path class="fil24" d="M30280 19774l-50 1082 -47 999c0,0 -644,-664 -991,-1459 -298,-683 -1320,-1046 -1603,-1135 -39,-12 -58,-55 -41,-92l41 -86c17,-38 55,-60 96,-58 769,47 1632,623 1941,749 318,129 654,0 654,0z"/>
  <path class="fil13" d="M33132 23258l-1764 0 49 -850 4 -66 217 -3796 1266 0c142,0 258,110 266,251l5 91 20 365 98 1805 31 557 39 727 3 66 32 569c8,152 -114,281 -266,281z"/>
  <path class="fil13" d="M32868 18546l-2173 0c-19,0 -36,-17 -36,-37l0 -115c0,-20 17,-36 36,-36l2173 0c20,0 36,16 36,36l0 115c0,20 -16,37 -36,37z"/>
  <path class="fil13" d="M30280 20866l-97 989c0,0 -644,-664 -991,-1459 -298,-683 -1320,-1046 -1603,-1135 0,0 1300,195 1661,853 302,549 817,705 980,742 32,7 50,10 50,10z"/>
  <polygon class="fil25" points="33199,19261 33199,19327 30301,19327 30304,19261 "/>
  <polygon class="fil25" points="33355,22408 30145,22408 30148,22342 33351,22342 "/>
  <polygon class="fil17" points="19424,24388 14947,23568 14993,23317 19470,24137 "/>
  <path class="fil17" d="M20932 24617c-602,471 -1731,151 -1731,151l167 -559 4 -10 162 -544c1394,266 1398,962 1398,962z"/>
  <path class="fil16" d="M20932 24617c-602,471 -1731,151 -1731,151l167 -559 4 -10 1560 418z"/>
  <polygon class="fil13" points="14295,23743 14097,23705 14325,22819 14522,22857 "/>
  <path class="fil13" d="M14666 23720c-195,0 -388,-55 -403,-59l41 -107c148,42 551,117 634,-48 54,-109 59,-200 14,-273 -64,-106 -235,-182 -507,-224l22 -111c314,48 515,143 600,282 64,105 60,230 -11,371 -66,132 -229,169 -390,169z"/>
 </g>
</svg>
