<?xml version="1.0" encoding="UTF-8"?>
<!DOCTYPE svg PUBLIC "-//W3C//DTD SVG 1.1//EN" "http://www.w3.org/Graphics/SVG/1.1/DTD/svg11.dtd">
<!-- Creator: CorelDRAW X8 -->
<svg xmlns="http://www.w3.org/2000/svg" xml:space="preserve" width="49.0694in" height="27.7778in" version="1.1" style="shape-rendering:geometricPrecision; text-rendering:geometricPrecision; image-rendering:optimizeQuality; fill-rule:evenodd; clip-rule:evenodd"
viewBox="0 0 49069 27778"
 xmlns:xlink="http://www.w3.org/1999/xlink">
 <defs>
  <style type="text/css">
   <![CDATA[
    .fil18 {fill:#13375B;fill-rule:nonzero}
    .fil10 {fill:#184655;fill-rule:nonzero}
    .fil24 {fill:#29446D;fill-rule:nonzero}
    .fil6 {fill:#355389;fill-rule:nonzero}
    .fil7 {fill:#3C8F7C;fill-rule:nonzero}
    .fil15 {fill:#466EB6;fill-rule:nonzero}
    .fil25 {fill:#4E9B87;fill-rule:nonzero}
    .fil8 {fill:#50BFA5;fill-rule:nonzero}
    .fil5 {fill:#86B1F2;fill-rule:nonzero}
    .fil9 {fill:#96D9C9;fill-rule:nonzero}
    .fil17 {fill:#B75742;fill-rule:nonzero}
    .fil21 {fill:#C3A19D;fill-rule:nonzero}
    .fil4 {fill:#CFEBF9;fill-rule:nonzero}
    .fil22 {fill:#D5654D;fill-rule:nonzero}
    .fil3 {fill:#E2EEFC;fill-rule:nonzero}
    .fil1 {fill:#EAFCFC;fill-rule:nonzero}
    .fil23 {fill:#ED9A8C;fill-rule:nonzero}
    .fil12 {fill:#EE944C;fill-rule:nonzero}
    .fil16 {fill:#F47458;fill-rule:nonzero}
    .fil20 {fill:#F48C7F;fill-rule:nonzero}
    .fil13 {fill:#F7A491;fill-rule:nonzero}
    .fil14 {fill:#F7CC7F;fill-rule:nonzero}
    .fil11 {fill:#F8C48B;fill-rule:nonzero}
    .fil19 {fill:#FAE0B2;fill-rule:nonzero}
    .fil2 {fill:#FBFEFE;fill-rule:nonzero}
    .fil0 {fill:white;fill-rule:nonzero}
   ]]>
  </style>
 </defs>
 <g id="Layer_x0020_1">
  <metadata id="CorelCorpID_0Corel-Layer"/>
  <polygon class="fil0" points="0,27778 49069,27778 49069,0 0,0 "/>
  <path class="fil1" d="M45189 26393c1425,-1980 506,-14734 -1791,-16026 -1190,-669 -2269,-497 -3285,-325 -1140,193 -2201,386 -3249,-607 -865,-820 -150,-2853 -1938,-3521 -1058,-395 -2788,2 -4361,400 -2160,546 -4024,1092 -3450,-414 991,-2602 -5753,-4397 -12186,-4052 -6433,344 -5239,3871 -5149,4442 90,570 1036,3326 -2629,4592 -3665,1266 -2824,2991 -2463,3979 314,861 2088,1879 -496,4105 -2151,1854 -1583,6457 -959,7402l41956 25z"/>
  <path class="fil2" d="M17906 10150l-6563 0c-3,-29 -5,-60 -5,-90 0,-516 452,-934 1009,-934 178,0 345,43 490,118 205,-523 746,-897 1381,-897 535,0 1002,264 1259,659 112,-33 232,-50 355,-50 478,0 890,261 1080,637 66,-16 134,-24 205,-24 385,0 706,248 789,581z"/>
  <path class="fil2" d="M22233 5297l-5604 0c70,-284 345,-496 674,-496 60,0 119,7 175,20 162,-321 514,-544 922,-544 105,0 207,15 303,43 220,-337 619,-563 1075,-563 542,0 1005,319 1180,766 124,-64 266,-101 418,-101 476,0 861,357 861,798 0,26 -1,52 -4,77z"/>
  <path class="fil2" d="M26117 9686l-3150 0c39,-160 194,-279 379,-279 33,0 66,4 98,11 91,-180 289,-305 518,-305 59,0 117,8 170,23 124,-189 348,-316 605,-316 305,0 564,180 663,431 69,-36 150,-57 235,-57 268,0 484,201 484,448 0,15 -1,30 -2,44z"/>
  <path class="fil2" d="M36769 10821l-4916 0c62,-249 303,-435 591,-435 53,0 104,6 153,18 143,-282 451,-477 809,-477 93,0 182,13 266,37 193,-296 543,-493 943,-493 476,0 881,279 1034,671 110,-56 235,-88 368,-88 417,0 755,313 755,699 0,23 -1,46 -3,68z"/>
  <path class="fil3" d="M4136 19016l0 -69 78 0c-7,6 -15,13 -22,19 -19,16 -38,33 -56,50z"/>
  <path class="fil4" d="M4136 26203l0 -7187c18,-17 37,-34 56,-50 7,-6 15,-13 22,-19l910 0 0 -935 1482 -1432 0 2164 443 14 0 -2182 517 0 0 -3284 311 0 0 -625 1211 0 0 625 311 0 0 930 1255 0 0 3536 254 14 14 -3503 900 0 0 1864 561 14 0 -2913 192 0 0 -614 1685 0 0 614 192 0 0 3925 355 0 0 -1224 295 0 0 -598 429 0 0 -1747 620 0 0 1747 429 0 0 598 295 0 0 2070 207 0 163 -2 0 -2398 1781 39 0 1657 1128 0 0 -708 1330 0 0 -3879 384 0 0 -499 842 0 0 4769 920 0 0 708 369 0 0 -2050 4373 -39 0 1511 369 2 0 -1183 296 0 0 -598 428 0 0 -1747 620 0 0 1747 429 0 0 598 295 0 0 715 355 0 0 -3416 192 0 0 -614 1684 0 0 614 192 0 0 2913 561 -14 0 -1864 1595 0 72 3503 239 -14 0 -1182 516 0 0 -930 311 0 0 -625 1211 0 0 625 310 0 0 930 517 0 0 2182 443 -14 0 -2164 1482 0 0 2367 905 0 0 -1027 634 0 0 2307 1136 0 0 5977 -19284 0 -19744 1zm22627 -3705l0 0c4,9 7,13 12,13 3,0 7,-2 12,-5 34,-21 68,-41 103,-61 313,-185 626,-371 939,-556 9,-5 15,-9 15,-16 0,-4 -2,-9 -9,-16 -14,-17 -29,-35 -43,-53l0 0 -53 -67c31,-20 59,-41 85,-64 190,-169 254,-434 164,-676 -87,-231 -303,-385 -551,-393 -7,0 -15,0 -22,0 -167,0 -313,60 -433,180l-28 -36c-7,-8 -13,-16 -20,-24l0 0c-6,-9 -13,-17 -19,-26 -7,-10 -14,-15 -22,-15 -5,0 -11,2 -18,7 -2,1 -5,3 -7,4 0,0 -1,1 -1,1 -2,1 -4,2 -7,4 0,0 -1,1 -2,1 -1,1 -3,2 -4,3 -2,1 -4,2 -5,3 -1,0 -1,0 -2,1 -38,23 -76,45 -114,68 -36,21 -72,42 -107,63 -18,10 -36,18 -56,22 -121,29 -243,57 -364,85 -19,5 -23,10 -14,28 12,23 18,48 30,71 10,22 5,32 -16,43 -30,15 -29,16 -15,48 46,110 92,220 138,330 59,140 118,280 177,421 18,42 35,84 54,130 -22,-8 -39,-14 -56,-21 -295,-110 -591,-221 -887,-331 -18,-7 -30,-16 -40,-32 -37,-57 -76,-114 -114,-170 -14,-21 -29,-42 -46,-66 -60,160 -118,316 -179,477 97,-26 188,-50 279,-74 5,-2 10,-2 15,-2 7,0 14,1 21,4 367,158 735,316 1102,474 14,6 21,14 26,28 14,33 28,66 42,99l0 0c6,14 12,28 17,42 5,11 10,23 15,35 0,1 0,1 1,1 0,1 1,3 1,4 1,1 1,2 1,2 1,1 1,2 1,3 1,1 1,2 2,3 0,2 1,4 2,6zm886 -874l-578 -727c87,-96 211,-150 344,-150 4,0 9,0 14,0 140,4 268,68 352,174 14,17 26,36 39,56 64,110 82,238 50,360 -33,121 -111,223 -221,287z"/>
  <path class="fil5" d="M31487 25624c-5357,-576 -12067,-6166 -16616,-6818 -4798,-687 -9729,6970 -9729,6970l26345 -67 0 -85z"/>
  <polygon class="fil6" points="13245,22475 13483,22475 13483,19841 13245,19841 "/>
  <polygon class="fil7" points="13364,14731 12588,21000 14140,21000 "/>
  <polygon class="fil8" points="12870,18726 13976,19674 13933,19331 12904,18448 "/>
  <polygon class="fil8" points="13040,17352 13717,17583 13685,17326 13069,17115 "/>
  <polygon class="fil6" points="15562,22501 15775,22501 15775,20521 15562,20521 "/>
  <polygon class="fil7" points="15698,16991 15142,20987 16255,20987 "/>
  <polygon class="fil8" points="15177,20734 16176,20419 16161,20311 15193,20616 "/>
  <polygon class="fil8" points="15353,19471 16015,19262 16000,19154 15369,19353 "/>
  <path class="fil9" d="M44575 22322l172 -354c123,-265 20,-573 -229,-688 -628,-291 -1388,14 -1697,682l-226 487c-99,214 -298,347 -508,363 -190,15 -361,141 -445,323l-119 257c-129,278 -126,595 -2,864 72,157 76,349 -5,525l-169 364c-186,403 -30,871 349,1047l216 100c379,175 838,-9 1024,-411 173,-538 460,-762 711,-849 371,-128 681,-406 851,-773l23 -51c180,-387 179,-828 13,-1205 -74,-166 -93,-391 41,-681z"/>
  <path class="fil9" d="M3671 22318l-172 -354c-123,-264 -20,-573 229,-688 628,-291 1388,14 1697,682l226 488c99,213 298,346 508,362 190,15 361,141 445,323l119 257c129,279 126,595 2,864 -72,158 -76,350 5,525l169 364c186,403 30,872 -349,1047l-217 100c-379,175 -837,-9 -1023,-411l0 0c-173,-538 -460,-761 -712,-849 -370,-128 -680,-406 -850,-773l-24 -51c-179,-387 -179,-828 -12,-1205 74,-166 93,-391 -41,-681z"/>
  <polygon class="fil6" points="34547,25595 34785,25595 34785,22960 34547,22960 "/>
  <polygon class="fil7" points="34666,17850 35442,24119 33890,24119 "/>
  <polygon class="fil8" points="35160,21846 34054,22794 34097,22450 35126,21568 "/>
  <polygon class="fil8" points="34990,20471 34313,20703 34345,20446 34961,20235 "/>
  <polygon class="fil6" points="32847,25621 33060,25621 33060,23641 32847,23641 "/>
  <polygon class="fil7" points="32924,20110 33480,24107 32367,24107 "/>
  <polygon class="fil8" points="33445,23853 32446,23538 32461,23430 33429,23735 "/>
  <polygon class="fil8" points="33269,22591 32607,22382 32622,22274 33253,22472 "/>
  <path class="fil9" d="M3228 26361c0,0 4789,-4569 10963,-4849 2073,-95 10563,1795 17712,3280 300,62 7792,1556 8813,1601l-37488 -32z"/>
  <path class="fil8" d="M36683 26393c0,0 1251,-1661 2038,-1916 787,-255 46,757 46,757 0,0 1396,-1527 1909,-1389 469,126 0,1072 0,1072 0,0 528,-524 1170,-524 642,0 -496,1963 -496,1963l-4667 37z"/>
  <path class="fil7" d="M40716 26384c0,0 855,-2287 1914,-2023 858,215 248,1365 300,1313 52,-52 513,-833 1258,-833 744,0 -229,1054 -229,1054 0,0 1587,-496 1711,25 103,431 -474,464 -474,464l-4480 0z"/>
  <path class="fil8" d="M8966 26393c0,0 -1251,-1661 -2039,-1916 -787,-255 -45,757 -45,757 0,0 -1359,-1854 -1871,-1717 -470,126 -279,1063 -279,1063 0,0 -288,-187 -929,-187 -642,0 496,1963 496,1963l4667 37z"/>
  <path class="fil7" d="M5942 26384c0,0 -613,-1641 -1373,-1452 -616,154 -178,980 -216,942 -37,-37 -368,-598 -902,-598 -534,0 164,757 164,757 0,0 -1139,-356 -1228,18 -74,310 340,333 340,333l3215 0z"/>
  <path class="fil7" d="M9919 25878c6,-33 9,-67 9,-101 0,-386 -361,-698 -806,-698 -446,0 -807,312 -807,698 0,34 3,68 9,101l1595 0z"/>
  <path class="fil8" d="M10832 25707c5,-47 8,-95 8,-144 0,-543 -361,-983 -806,-983 -445,0 -806,440 -806,983 0,49 3,97 8,144l1596 0z"/>
  <path class="fil8" d="M10537 26309c-6,-33 -9,-67 -9,-101 0,-385 361,-698 806,-698 446,0 807,313 807,698 0,34 -3,68 -9,101l-1595 0z"/>
  <path class="fil7" d="M9246 26309c-7,-46 -10,-94 -10,-143 0,-543 457,-983 1022,-983 564,0 1022,440 1022,983 0,49 -4,97 -11,143l-2023 0z"/>
  <path class="fil8" d="M10031 25183c-282,0 -534,139 -700,358 -85,-20 -175,-31 -268,-31 -501,0 -907,313 -907,698 0,34 3,68 9,101l2763 0c7,-46 10,-94 10,-143 0,-543 -406,-983 -907,-983z"/>
  <path class="fil7" d="M6536 24238c-237,-371 -282,-819 -277,-1129 5,-337 67,-589 68,-592l-17 -6c-1,3 -64,257 -69,596 -4,314 40,766 281,1141l14 -10z"/>
  <path class="fil7" d="M6385 22456c-5,76 -39,140 -88,179 -41,-53 -65,-126 -59,-202 6,-76 40,-140 88,-179 42,53 65,126 59,202z"/>
  <path class="fil7" d="M6225 22632c40,66 53,141 40,206 -62,-15 -122,-58 -162,-124 -40,-66 -52,-141 -40,-206 62,15 122,58 162,124z"/>
  <path class="fil7" d="M6134 22839c63,41 105,103 121,170 -59,16 -129,6 -191,-34 -63,-41 -105,-104 -122,-170 60,-17 130,-7 192,34z"/>
  <path class="fil7" d="M6162 23127c50,33 80,88 89,149 -52,22 -110,19 -159,-13 -50,-32 -81,-88 -89,-149 52,-22 110,-19 159,13z"/>
  <path class="fil7" d="M6367 22786c55,-30 118,-32 171,-10 -14,57 -52,109 -107,139 -56,29 -118,31 -172,9 15,-57 52,-109 108,-138z"/>
  <path class="fil7" d="M6361 22985c55,-30 117,-32 171,-10 -14,57 -52,109 -107,139 -56,29 -118,31 -172,10 14,-58 52,-110 108,-139z"/>
  <path class="fil7" d="M6198 23444c29,7 54,27 69,53 -21,17 -50,25 -79,18 -30,-7 -54,-27 -69,-53 21,-17 50,-25 79,-18z"/>
  <path class="fil7" d="M6438 24500c-543,-130 -957,-532 -1209,-846 -273,-341 -420,-655 -421,-658l-23 11c2,3 149,320 425,663 254,317 672,723 1222,855l6 -25z"/>
  <path class="fil7" d="M4815 22875c57,82 76,180 60,268 -85,-11 -168,-60 -226,-142 -57,-82 -76,-179 -60,-268 85,11 169,60 226,142z"/>
  <path class="fil7" d="M4800 23213c95,25 170,87 211,165 -74,48 -169,65 -264,40 -94,-25 -169,-87 -210,-165 74,-48 169,-65 263,-40z"/>
  <path class="fil7" d="M4881 23511c96,-23 190,-3 261,47 -45,77 -123,137 -219,160 -96,22 -190,2 -261,-47 45,-77 123,-137 219,-160z"/>
  <path class="fil7" d="M5097 23782c96,-22 191,-2 261,47 -45,77 -123,137 -219,160 -96,23 -190,3 -261,-47 46,-77 123,-137 219,-160z"/>
  <path class="fil7" d="M5033 23331c-5,-92 25,-179 77,-241 58,49 97,127 102,220 4,92 -26,179 -78,241 -57,-49 -96,-127 -101,-220z"/>
  <path class="fil7" d="M5258 23612c-6,-92 23,-180 74,-243 58,48 99,126 105,218 6,92 -23,180 -74,243 -58,-48 -98,-126 -105,-218z"/>
  <path class="fil7" d="M5445 24050c35,-23 76,-28 112,-17 -7,39 -29,75 -64,98 -35,23 -76,28 -112,17 7,-39 29,-75 64,-98z"/>
  <path class="fil7" d="M7876 25267l23 -1c-33,-622 195,-1206 392,-1587 214,-414 439,-683 441,-686l-17 -18c-2,3 -229,274 -444,690 -199,384 -429,974 -395,1602z"/>
  <path class="fil7" d="M8834 22957c-53,91 -130,147 -209,162 -13,-94 6,-200 60,-290 54,-90 131,-146 209,-162 13,94 -6,200 -60,290z"/>
  <path class="fil7" d="M8547 23066c4,109 -28,210 -83,282 -59,-60 -99,-154 -102,-264 -4,-109 28,-210 83,-282 59,60 99,155 102,264z"/>
  <path class="fil7" d="M8319 23260c44,93 52,199 29,292 -76,-19 -147,-79 -191,-172 -45,-93 -53,-200 -30,-293 77,20 147,80 192,173z"/>
  <path class="fil7" d="M8161 23737c22,37 28,82 21,121 -33,-5 -64,-28 -85,-65 -21,-38 -28,-82 -21,-122 33,6 64,28 85,66z"/>
  <path class="fil7" d="M8094 23908c21,38 27,82 20,122 -32,-6 -64,-28 -85,-66 -21,-37 -28,-82 -21,-122 33,6 64,29 86,66z"/>
  <path class="fil7" d="M8610 23352c80,2 150,42 196,105 -52,62 -125,100 -205,99 -80,-1 -150,-42 -196,-105 51,-61 124,-100 205,-99z"/>
  <path class="fil7" d="M8479 23595c81,1 151,41 196,104 -51,62 -124,100 -204,99 -80,-1 -151,-42 -196,-105 51,-61 124,-100 204,-98z"/>
  <path class="fil7" d="M8264 23925c52,1 98,27 128,68 -33,40 -81,65 -133,64 -53,-1 -98,-27 -128,-68 33,-40 81,-65 133,-64z"/>
  <path class="fil7" d="M5851 26286c0,-104 624,18 676,-123 52,-140 -535,-149 -535,-339 0,-191 299,-57 475,-57 175,0 -347,-82 -347,-149 0,-68 183,-32 183,-104 0,-71 -961,-126 -848,-301 112,-175 629,51 771,-39 142,-91 -758,-190 -780,-325 -23,-135 663,116 760,19 97,-97 -1084,-446 -1034,-702 49,-257 894,328 1106,265 211,-63 -1066,-963 -769,-1313 297,-351 863,1160 1056,1106 194,-54 -242,-955 -44,-1111 197,-157 764,1268 800,1560 36,293 108,-629 418,-737 310,-108 9,571 63,778 54,207 306,-530 645,-476 340,54 -614,728 -519,926 94,198 830,-661 1061,-430 231,231 -887,871 -825,1046 61,175 731,-125 924,68 193,193 -720,315 -841,315 -121,0 -584,153 -132,123 452,-30 -2264,103 -2264,0z"/>
  <path class="fil8" d="M7631 26405c0,0 752,41 971,-97 219,-138 46,-245 46,-245 0,0 695,-16 694,-180 -2,-165 -171,-156 -171,-156 0,0 351,-238 286,-387 -101,-228 -673,169 -673,169 0,0 188,-222 36,-274 -415,-143 -1189,1170 -1189,1170z"/>
  <path class="fil9" d="M9457 25340c65,149 -286,387 -286,387 0,0 254,-3 212,157 -40,160 -677,214 -677,214 0,0 222,43 3,181 -219,138 -1078,126 -1078,126l1826 -1065z"/>
  <path class="fil7" d="M39005 24061c258,-402 305,-888 300,-1225 -5,-365 -72,-639 -73,-642l19 -6c0,3 69,278 74,646 5,340 -44,831 -304,1238l-16 -11z"/>
  <path class="fil7" d="M39169 22128c6,82 42,152 95,194 45,-57 71,-136 64,-219 -6,-83 -43,-152 -95,-195 -45,58 -71,137 -64,220z"/>
  <path class="fil7" d="M39343 22319c-44,71 -58,153 -44,223 67,-16 132,-62 176,-134 44,-72 57,-153 43,-224 -67,16 -132,63 -175,135z"/>
  <path class="fil7" d="M39441 22543c-68,44 -113,113 -131,184 64,19 140,8 208,-36 67,-45 114,-113 131,-185 -64,-18 -140,-7 -208,37z"/>
  <path class="fil7" d="M39411 22856c-54,35 -87,95 -96,162 56,23 119,20 172,-15 54,-35 87,-95 96,-161 -55,-24 -119,-21 -172,14z"/>
  <path class="fil7" d="M39189 22485c-60,-32 -128,-34 -186,-10 15,62 56,118 116,150 61,33 129,34 186,11 -15,-62 -56,-118 -116,-151z"/>
  <path class="fil7" d="M39196 22702c-61,-33 -128,-35 -186,-11 15,62 56,118 116,150 60,33 128,35 186,11 -15,-62 -56,-118 -116,-150z"/>
  <path class="fil7" d="M39372 23200c-32,7 -59,29 -75,57 24,19 54,27 86,20 32,-8 58,-29 74,-57 -22,-19 -53,-28 -85,-20z"/>
  <path class="fil7" d="M39111 24346c589,-141 1039,-577 1312,-918 297,-370 456,-711 458,-715l24 13c-2,3 -162,347 -461,719 -276,344 -730,785 -1326,928l-7 -27z"/>
  <path class="fil7" d="M40873 22583c-63,88 -83,195 -66,290 93,-11 183,-65 245,-154 62,-88 83,-195 66,-290 -93,12 -183,65 -245,154z"/>
  <path class="fil7" d="M40888 22949c-102,27 -183,95 -228,179 80,52 183,71 286,44 103,-28 184,-95 228,-180 -80,-52 -183,-70 -286,-43z"/>
  <path class="fil7" d="M40801 23273c-104,-25 -206,-4 -283,50 49,84 133,149 237,174 104,24 207,3 284,-51 -49,-84 -134,-149 -238,-173z"/>
  <path class="fil7" d="M40566 23567c-104,-25 -206,-3 -283,51 49,83 133,149 238,173 104,25 206,3 283,-51 -49,-83 -134,-148 -238,-173z"/>
  <path class="fil7" d="M40636 23078c6,-101 -27,-195 -84,-263 -62,54 -105,139 -110,239 -5,100 28,194 84,262 63,-53 105,-138 110,-238z"/>
  <path class="fil7" d="M40392 23382c6,-100 -25,-195 -80,-264 -64,52 -107,137 -114,237 -7,100 24,195 80,264 63,-52 107,-137 114,-237z"/>
  <path class="fil7" d="M40189 23857c-38,-25 -82,-30 -121,-18 7,42 31,81 69,106 37,25 82,30 121,18 -7,-42 -31,-81 -69,-106z"/>
  <path class="fil7" d="M37551 25178l-25 -2c36,-674 -211,-1308 -425,-1721 -232,-449 -476,-742 -479,-745l19 -19c2,3 248,298 482,749 216,417 466,1057 428,1738z"/>
  <path class="fil7" d="M36511 22672c59,98 142,159 227,175 15,-102 -6,-216 -64,-315 -59,-98 -142,-158 -227,-175 -14,102 7,217 64,315z"/>
  <path class="fil7" d="M36823 22789c-4,119 31,229 90,307 64,-66 108,-168 112,-286 4,-119 -32,-229 -91,-307 -64,66 -107,168 -111,286z"/>
  <path class="fil7" d="M37071 23000c-48,101 -57,216 -32,317 83,-21 160,-86 208,-187 48,-101 57,-217 32,-318 -83,22 -160,87 -208,188z"/>
  <path class="fil7" d="M37242 23518c-23,40 -30,88 -23,132 36,-7 70,-31 93,-72 23,-40 30,-89 22,-132 -35,6 -69,31 -92,72z"/>
  <path class="fil7" d="M37315 23703c-22,41 -30,89 -22,132 35,-6 69,-30 92,-71 23,-41 30,-89 23,-132 -36,6 -70,31 -93,71z"/>
  <path class="fil7" d="M36755 23101c-86,1 -163,45 -212,113 55,67 135,108 222,107 87,-1 163,-45 213,-113 -56,-67 -136,-109 -223,-107z"/>
  <path class="fil7" d="M36896 23363c-87,2 -162,45 -212,114 56,67 135,108 222,107 87,-1 163,-45 213,-114 -56,-66 -136,-108 -223,-107z"/>
  <path class="fil7" d="M37130 23721c-57,1 -106,30 -138,74 36,44 88,71 144,70 57,-1 106,-29 139,-74 -36,-43 -88,-70 -145,-70z"/>
  <path class="fil7" d="M39749 26283c0,-112 -678,20 -734,-133 -56,-152 580,-161 580,-368 0,-207 -324,-62 -515,-62 -190,0 376,-88 376,-162 0,-73 -198,-34 -198,-112 0,-78 1042,-136 920,-327 -122,-190 -682,56 -836,-43 -154,-98 822,-205 846,-352 25,-146 -719,126 -824,20 -106,-105 1175,-483 1122,-761 -54,-278 -971,356 -1201,288 -229,-69 1157,-1045 835,-1425 -322,-381 -937,1259 -1147,1200 -210,-59 263,-1036 48,-1206 -214,-170 -829,1376 -868,1694 -38,317 -116,-683 -453,-800 -337,-117 -10,619 -68,844 -59,224 -332,-576 -700,-517 -369,58 666,790 563,1005 -102,214 -901,-717 -1151,-467 -251,251 962,945 895,1135 -66,190 -793,-135 -1002,74 -210,209 781,342 912,342 131,0 634,166 143,133 -490,-32 2457,112 2457,0z"/>
  <path class="fil8" d="M37817 26413c0,0 -816,43 -1053,-106 -237,-150 -50,-266 -50,-266 0,0 -755,-17 -753,-195 2,-179 185,-169 185,-169 0,0 -381,-259 -310,-420 109,-248 730,184 730,184 0,0 -204,-242 -39,-298 451,-155 1290,1270 1290,1270z"/>
  <path class="fil7" d="M35836 25257c-71,161 310,420 310,420 0,0 -275,-3 -230,170 44,174 735,232 735,232 0,0 -241,47 -3,197 237,149 1169,137 1169,137l-1981 -1156z"/>
  <path class="fil10" d="M4552 19844c1,-41 57,-73 87,-37 30,36 28,12 57,90 83,223 205,439 347,628 272,361 541,544 847,724 -126,-283 -210,-586 -221,-892 -4,-111 -2,-227 46,-329 13,-28 64,-22 69,9 26,158 -12,277 39,559 122,673 604,1388 1069,1888 -89,-847 -132,-1809 27,-2663 26,-140 68,-274 107,-410 9,-33 54,-19 49,13 -8,46 -84,633 -89,674 -73,650 -59,1371 -1,2028 360,-488 602,-1060 715,-1656 33,-177 42,-359 89,-532 6,-24 45,-26 50,0 48,260 -48,718 -118,967 -142,506 -369,958 -680,1363 -12,15 499,3967 485,4017 -23,84 -170,144 -193,-6 -9,-61 -290,-2464 -417,-3577 -48,-26 -78,-73 -202,-212 -285,-320 -567,-719 -755,-1095 -113,-7 -930,-404 -1335,-1309 -12,-26 -64,-148 -72,-176 -6,-23 -1,-43 0,-66z"/>
  <path class="fil7" d="M7175 18562c-10,-121 -14,-246 -14,-372 0,-1412 599,-2556 1338,-2556 739,0 1338,1144 1338,2556 0,126 -5,251 -14,372l-2648 0z"/>
  <path class="fil8" d="M5660 17934c-9,-171 -14,-347 -14,-525 0,-1991 599,-3604 1338,-3604 739,0 1338,1613 1338,3604 0,178 -4,354 -14,525l-2648 0z"/>
  <path class="fil8" d="M6150 20143c10,-122 14,-246 14,-373 0,-1411 -599,-2555 -1338,-2555 -739,0 -1338,1144 -1338,2555 0,127 5,251 14,373l2648 0z"/>
  <path class="fil7" d="M8292 20143c12,-172 18,-347 18,-526 0,-1990 -760,-3604 -1697,-3604 -936,0 -1696,1614 -1696,3604 0,179 6,354 18,526l3357 0z"/>
  <path class="fil8" d="M6989 16013c469,0 887,512 1163,1315 141,-74 290,-113 445,-113 831,0 1505,1144 1505,2555 0,127 -6,251 -16,373l-4586 0c-10,-172 -16,-347 -16,-526 0,-1990 674,-3604 1505,-3604z"/>
  <path class="fil10" d="M22133 23627c-66,16 -127,-4 -137,-45l-1415 -6038c-10,-40 36,-86 102,-101 66,-16 128,4 137,45l1416 6038c9,41 -37,86 -103,101z"/>
  <path class="fil11" d="M22134 23516c-5,-18 -18,-26 -35,-22 -16,4 -25,17 -21,34 5,18 17,25 35,22 18,-4 23,-18 21,-34zm-372 1246c60,-14 116,-31 174,-40 54,-9 100,-28 136,-68 86,-96 120,-209 107,-336 -3,-38 -17,-75 -27,-113 -64,-249 -128,-499 -192,-749 -5,-20 -11,-39 -15,-59 -1,-7 0,-15 3,-24 12,27 33,25 54,20 51,-11 102,-23 153,-36 16,-5 39,-10 32,-36 3,-1 10,7 11,13 41,193 82,386 124,579 12,57 24,113 36,170 12,58 19,119 38,176 43,125 127,214 252,262 51,20 102,16 155,-4 50,-19 104,-27 156,-38 4,-1 13,5 16,11 4,10 6,22 9,34 61,258 121,517 182,775 20,84 12,167 -12,249 -40,136 -115,254 -202,365 -36,47 -75,92 -116,135 -72,75 -160,96 -258,60 -149,-54 -290,-124 -415,-223 -81,-63 -149,-137 -190,-234 -8,-18 -15,-38 -20,-57 -62,-264 -124,-527 -185,-791 -3,-13 -4,-28 -6,-41z"/>
  <path class="fil12" d="M22984 24524c-3,-12 -5,-24 -9,-34 -3,-6 -12,-12 -16,-11 -52,11 -106,19 -156,38 -53,20 -104,24 -155,4 -125,-48 -209,-137 -252,-262 -19,-57 -26,-118 -38,-176 -12,-57 -24,-113 -36,-170 -42,-193 -83,-386 -124,-579 -1,-6 -8,-14 -11,-13 7,26 -16,31 -32,36 -27,7 -54,13 -81,20l28 117c15,-3 27,5 32,22 2,16 -3,28 -19,33l602 2571c43,-11 83,-35 119,-72 41,-43 80,-88 116,-135 87,-111 162,-229 202,-365 24,-82 32,-165 12,-249 -61,-258 -121,-517 -182,-775z"/>
  <path class="fil13" d="M19252 25831c-18,-129 -23,-326 -22,-554l-400 90c47,322 34,484 34,484l-12 102 0 301 985 0c0,0 -209,-94 -501,-279 -22,-13 -72,-57 -84,-144z"/>
  <path class="fil13" d="M17732 25730l131 -375 -343 0c-18,241 -24,403 -24,403l-87 247 -89 293c0,0 292,75 445,-9l-17 -292 -16 -267z"/>
  <path class="fil14" d="M17748 25996c-135,60 -280,24 -338,4l-20 53 -74 247c0,0 296,91 449,7l-17 -311z"/>
  <path class="fil14" d="M18842 26329l1024 0c38,-3 47,-34 34,-54 -27,-39 -146,-68 -281,-130 -235,25 -730,-138 -767,-193 -21,110 -31,372 -10,377z"/>
  <path class="fil6" d="M18864 20565l-543 3327 -583 1934 -256 -30c0,0 -18,-921 122,-1507 76,-320 114,-648 124,-978 18,-588 62,-1420 169,-1849 149,-596 317,-912 317,-912l650 15z"/>
  <path class="fil15" d="M18329 21315c-59,712 535,4450 535,4450l381 0c0,0 312,-3908 249,-4289 -64,-380 -254,-1000 -254,-1000l-854 67c0,0 -41,579 -57,772z"/>
  <path class="fil13" d="M18721 17256c0,86 -32,156 -71,156 -40,0 -72,-70 -72,-156 0,-86 32,-155 72,-155 39,0 71,69 71,155z"/>
  <path class="fil16" d="M18812 18265c-589,-237 -887,-158 -989,-107l5 897c17,75 -50,2266 -71,2522 0,0 1548,156 1824,-163 0,0 -343,-1259 -300,-1584 67,-508 -419,-1544 -469,-1565z"/>
  <path class="fil13" d="M19339 18896c0,0 258,307 294,336 0,0 728,-350 1028,-527 3,-3 7,-5 10,-8 6,-5 14,-8 14,-17 -3,-41 2,-180 7,-241 1,-16 6,-32 14,-47 18,-32 52,-92 52,-92l16 72c6,22 28,36 51,32l0 0c23,-4 43,-16 63,-29 27,-16 61,-24 92,-28 31,-4 55,14 65,45 6,20 7,43 19,58 19,27 102,298 61,336 -20,19 -141,71 -191,84 -37,9 -70,27 -97,48 -6,5 -12,9 -18,13l0 0c-210,148 -904,656 -904,656 0,0 -347,224 -414,189 -66,-35 -549,-607 -549,-607l387 -273z"/>
  <path class="fil13" d="M18445 17599c0,0 14,331 -16,456 -29,125 -69,135 186,173 100,15 197,37 197,37 0,0 -26,-184 -30,-261 -7,-128 29,-524 29,-524l-366 119z"/>
  <path class="fil16" d="M18640 17764c52,28 101,45 146,52 9,-157 25,-336 25,-336l-349 114c41,67 98,127 178,170z"/>
  <path class="fil17" d="M18487 18630c-3,312 535,882 535,882 0,0 485,-386 555,-519 0,0 -521,-553 -554,-586 -151,-151 -301,-116 -395,-81 -76,27 -141,304 -141,304z"/>
  <path class="fil10" d="M18267 18757c294,-257 406,-824 213,-1161 134,-174 219,-143 190,-359 -59,-426 534,-683 91,-796 -448,-90 -820,185 -1025,458 -92,123 -207,230 -343,304 -271,149 -414,505 -270,876 -216,121 -406,473 -262,764 34,70 104,152 106,172 -4,-25 -202,626 536,848 753,226 908,-497 764,-1106z"/>
  <path class="fil10" d="M18051 16888c-87,360 385,621 759,631 243,6 354,-19 394,-275 63,-415 -108,-668 -347,-773 -310,-135 -734,121 -806,417z"/>
  <path class="fil13" d="M18600 16647c0,0 -164,55 -252,221 -87,165 -44,697 321,872 364,175 531,-223 505,-516 -26,-294 -132,-678 -574,-577z"/>
  <path class="fil0" d="M18828 17464l258 -4c0,0 -4,100 -118,105 -138,7 -140,-101 -140,-101z"/>
  <path class="fil10" d="M18219 17270c-54,-275 -33,-483 162,-583 195,-101 362,-200 536,-20l40 22c0,0 -329,91 -348,266 -18,175 -193,383 -166,469 27,86 58,257 58,257l-73 -59c0,0 -155,-78 -209,-352z"/>
  <path class="fil13" d="M18558 17165c28,75 7,151 -46,169 -52,19 -117,-28 -144,-104 -27,-76 -7,-152 46,-170 52,-18 117,29 144,105z"/>
  <path class="fil10" d="M24626 21486c0,0 -293,648 -608,980l0 99 473 -691 135 -388z"/>
  <path class="fil10" d="M24935 20353c3,-331 -72,-456 -73,-436 -3,46 4,133 7,250 0,14 -3,740 -221,1267 -1,3 -2,6 -3,8 -2,6 -5,11 -7,16 -4,10 -9,20 -13,30 -9,21 -17,38 -23,53 -239,544 -318,616 -584,925 -1,-851 -59,-1813 -307,-2645 -41,-137 -96,-265 -149,-397 -13,-31 -57,-13 -48,19 13,44 349,1236 333,2824 0,19 -79,3998 -60,4046 32,81 184,125 191,-26 3,-62 30,-2481 39,-3601 43,-28 647,-923 777,-1415 106,-404 140,-703 141,-917l1 -1 -1 0z"/>
  <path class="fil7" d="M23455 19224c59,65 84,153 76,238 -79,7 -159,-22 -217,-87 -58,-65 -83,-153 -75,-239 78,-6 158,23 216,88z"/>
  <path class="fil8" d="M23759 19211c-34,112 -118,202 -222,252 -62,-85 -84,-197 -50,-310 34,-112 118,-202 222,-252 62,86 84,198 50,310z"/>
  <path class="fil7" d="M24814 19767c48,54 68,127 62,197 -65,6 -131,-18 -179,-72 -48,-54 -69,-126 -63,-197 65,-6 131,18 180,72z"/>
  <path class="fil8" d="M25059 19757c-29,93 -98,167 -184,208 -51,-71 -69,-163 -41,-256 29,-93 97,-167 183,-208 52,70 70,163 42,256z"/>
  <path class="fil7" d="M24564 21098c69,21 125,72 156,135 -52,39 -121,53 -190,33 -70,-21 -125,-72 -156,-136 52,-39 121,-53 190,-32z"/>
  <path class="fil8" d="M24767 20961c25,94 5,193 -47,273 -81,-33 -145,-102 -169,-196 -24,-94 -4,-193 47,-274 81,33 145,103 169,197z"/>
  <path class="fil7" d="M23693 22202c65,-5 128,20 175,64 -32,50 -86,83 -151,88 -65,4 -128,-21 -175,-65 32,-49 86,-83 151,-87z"/>
  <path class="fil8" d="M23821 22021c50,71 65,162 47,246 -79,-2 -155,-41 -205,-112 -51,-72 -65,-162 -48,-246 79,2 155,40 206,112z"/>
  <path class="fil7" d="M23571 20770c69,-21 144,-9 205,27 -22,61 -72,111 -141,132 -69,21 -143,9 -205,-27 22,-61 72,-110 141,-132z"/>
  <path class="fil8" d="M23665 20543c72,65 110,159 112,255 -86,17 -178,-6 -250,-71 -72,-65 -110,-158 -112,-254 86,-17 177,6 250,70z"/>
  <path class="fil7" d="M25029 20457c-20,47 -60,82 -107,99 -23,-40 -28,-89 -8,-136 20,-47 60,-82 108,-99 23,40 27,90 7,136z"/>
  <path class="fil8" d="M25109 20611c-68,10 -136,-12 -188,-55 30,-54 84,-93 151,-103 68,-9 136,13 188,55 -29,54 -83,93 -151,103z"/>
  <path class="fil7" d="M23819 19835c-4,50 -31,96 -71,127 -34,-30 -54,-75 -50,-126 4,-51 31,-97 70,-128 35,30 55,76 51,127z"/>
  <path class="fil8" d="M23943 19954c-61,31 -132,32 -195,8 11,-60 49,-115 110,-145 61,-31 133,-32 196,-8 -11,60 -49,115 -111,145z"/>
  <path class="fil7" d="M24635 21837c-28,29 -67,44 -106,43 -6,-35 4,-72 32,-101 27,-29 66,-44 105,-44 6,36 -4,73 -31,102z"/>
  <path class="fil8" d="M24652 21972c-53,-12 -97,-46 -123,-92 36,-31 86,-46 139,-34 52,11 96,46 123,91 -37,32 -87,46 -139,35z"/>
  <path class="fil7" d="M24045 21202c-13,38 -43,67 -79,83 -20,-30 -26,-68 -13,-106 13,-38 43,-67 79,-83 20,30 26,68 13,106z"/>
  <path class="fil8" d="M24115 21317c-52,12 -106,-2 -149,-32 20,-44 60,-78 112,-89 53,-11 107,3 150,33 -20,44 -60,78 -113,88z"/>
  <path class="fil17" d="M22397 25948c108,-74 159,-177 289,-183 85,-5 175,-5 246,-50 98,-62 219,-107 309,-181 74,-60 173,-76 267,-89 153,-23 307,-45 460,-68 56,-8 114,-16 170,-9 208,25 344,239 544,298 95,28 200,20 288,64 114,58 169,189 197,313 17,77 171,121 206,272 13,30 -98,-14 -126,3 -28,17 -62,19 -95,20 -817,44 -1636,53 -2455,28 -98,-4 -616,53 -681,-37 -75,-105 300,-325 381,-381z"/>
  <path class="fil13" d="M28052 20733c0,0 -193,-49 -225,-62 -32,-13 -157,-35 -167,-19 -11,16 76,85 82,87 6,2 143,53 148,53 5,0 162,-59 162,-59z"/>
  <path class="fil13" d="M30017 19240c-48,255 -285,158 -336,167l-474 1004 -1094 321 -269 3c14,10 -187,-2 -266,42 5,13 27,30 33,42 62,122 153,218 184,351 50,-7 119,-19 184,-50 74,-34 274,-113 274,-113 1,0 1160,-230 1226,-280 58,-43 695,-1220 538,-1487z"/>
  <path class="fil13" d="M29733 25744l19 317c7,40 35,140 35,176 0,137 -652,-116 -506,-177 13,-6 83,-47 87,-94 7,-72 24,-218 24,-218l341 -4z"/>
  <path class="fil16" d="M29283 26059c0,0 153,42 231,52 79,11 182,-78 237,-54 61,26 59,263 59,263 0,0 -821,67 -1051,-2 -92,-28 211,-162 524,-259z"/>
  <path class="fil18" d="M30811 20726c0,0 72,481 -18,691 -90,211 -772,2280 -781,2449 -9,169 -236,2033 -236,2033l-474 -13 -103 -2073 215 -2606 208 -658 1189 177z"/>
  <path class="fil13" d="M31066 25744l19 317c8,40 35,140 35,176 0,137 -651,-116 -506,-177 14,-6 104,-78 108,-125 7,-72 3,-187 3,-187l341 -4z"/>
  <path class="fil16" d="M30616 26059c0,0 153,42 232,52 78,11 181,-78 237,-54 61,26 63,263 63,263 0,0 -824,78 -1056,-2 -90,-32 211,-162 524,-259z"/>
  <path class="fil10" d="M30919 20751c0,0 110,534 65,939 -45,405 -48,1843 -48,1843l171 2301 -407 9c0,0 -683,-2389 -674,-2329 9,59 -162,-1620 -162,-1620l776 -1194 279 51z"/>
  <path class="fil14" d="M29267 20232l556 208c0,0 148,-462 206,-685 71,-271 139,-626 104,-627 -97,-2 -234,16 -334,98 -346,283 -532,1006 -532,1006z"/>
  <path class="fil19" d="M29684 19703c-17,84 -430,2219 -430,2219 1046,574 1816,301 1816,301 0,0 -40,-1581 14,-1800 35,-145 164,-1101 70,-1133 -120,-41 -301,-102 -453,-126 -129,-20 -633,-54 -725,-28 0,0 -221,211 -292,567z"/>
  <path class="fil10" d="M30526 17394c0,0 -387,-170 -491,167 0,0 -337,-9 -254,333 0,0 -324,195 -79,616 0,0 -63,418 420,408 0,0 82,140 299,90 217,-50 269,-112 269,-112 0,0 397,85 489,-275 0,0 262,-84 57,-413 0,0 201,-462 -220,-566 0,0 -81,-451 -490,-248z"/>
  <path class="fil13" d="M30818 18411c-24,87 4,170 62,187 59,16 126,-41 150,-128 24,-87 -4,-171 -62,-187 -59,-16 -126,41 -150,128z"/>
  <path class="fil13" d="M29796 18278c3,90 54,162 115,160 61,-2 108,-76 106,-166 -3,-90 -54,-162 -115,-160 -61,1 -108,76 -106,166z"/>
  <path class="fil13" d="M30238 18830c1,6 -35,236 -54,358 -7,45 19,89 62,105 115,43 339,97 481,-51 12,-14 19,-32 17,-51l-59 -538 -447 177z"/>
  <path class="fil20" d="M30219 18958c123,51 271,41 430,-69 20,-13 39,-28 57,-43l-21 -193 -447 177c1,3 -8,58 -19,128z"/>
  <path class="fil13" d="M30480 17671c0,0 188,35 309,206 121,170 219,683 -150,937 -369,255 -675,-75 -692,-406 -17,-332 98,-766 533,-737z"/>
  <path class="fil0" d="M30127 18556l384 3c0,0 -10,146 -179,149 -206,5 -205,-152 -205,-152z"/>
  <path class="fil10" d="M30105 17743c0,0 204,-19 323,45 119,63 399,526 479,502 79,-24 112,-316 81,-373 -31,-57 -170,-249 -185,-258 -15,-9 -186,-77 -219,-82 -32,-5 -284,7 -284,7l-195 159z"/>
  <path class="fil13" d="M29948 21656c-36,-22 92,-169 75,-206 -18,-37 -215,121 -244,99 -54,-39 205,-186 182,-206 -24,-19 -299,119 -307,58 -8,-60 300,-113 284,-146 -16,-32 -282,75 -327,12 -24,-33 478,-126 504,-176 25,-50 -181,-132 -167,-180 14,-49 361,178 392,171 30,-8 676,-201 876,-295 -25,-72 -113,-503 -138,-570 147,-11 236,-174 381,-193 74,232 301,917 271,979 -93,188 -1092,333 -1273,345 -181,13 -224,93 -322,131 -99,37 -151,199 -187,177z"/>
  <path class="fil14" d="M31652 20436l-676 326c0,0 -106,-495 -185,-802 -68,-263 269,-732 381,-668 250,144 480,1144 480,1144z"/>
  <path class="fil6" d="M27705 21757l-90 -114 30 -17c112,-63 192,-166 225,-289 32,-122 14,-250 -50,-360 -13,-20 -25,-39 -39,-56 -84,-106 -212,-170 -352,-174 -140,-4 -271,52 -361,153l-23 26 -90 -114 18 -18c127,-132 283,-196 464,-190 248,8 464,162 551,393 90,242 26,507 -164,676 -29,26 -60,49 -97,71l-22 13z"/>
  <path class="fil16" d="M27792 21804l0 0 -795 -1001c-1,-1 -2,-3 -3,-4 -2,-3 -4,-5 -6,-7l-34 -44c-7,-8 -13,-16 -20,-24l0 0c-6,-9 -13,-17 -19,-26 -12,-16 -21,-20 -40,-8 -83,50 -166,99 -249,148 -18,10 -36,18 -56,22 -121,29 -243,57 -364,85 -19,5 -23,10 -14,28 12,23 18,48 30,71 10,22 5,32 -16,43 -30,15 -29,16 -15,48 46,110 92,220 138,330 59,140 118,280 177,421 18,42 35,84 54,130 -22,-8 -39,-14 -56,-21 -295,-110 -591,-221 -887,-331 -18,-7 -30,-16 -40,-32 -37,-57 -76,-114 -114,-170 -14,-21 -29,-42 -46,-66 -60,160 -118,316 -179,477 97,-26 188,-50 279,-74 13,-4 23,-3 36,2 367,158 735,316 1102,474 14,6 21,14 26,28 27,65 56,130 82,195 6,15 12,15 24,8 34,-21 68,-41 103,-61 313,-185 626,-371 939,-556 15,-9 22,-14 6,-32 -14,-17 -29,-35 -43,-53z"/>
  <polygon class="fil17" points="26173,20940 26218,21079 26648,20825 "/>
  <path class="fil6" d="M25587 21644c-4,-3 -7,-7 -10,-12 -37,-57 -76,-114 -114,-170 -14,-21 -29,-42 -46,-66 -60,160 -118,316 -179,477 97,-26 188,-50 279,-74l70 -155z"/>
  <path class="fil21" d="M26761 22492c-1,-1 -1,-2 -2,-3 1,1 1,2 2,3zm-3 -6c0,0 0,-1 -1,-2 1,1 1,2 1,2zm-2 -6c-1,0 -1,0 -1,-1 0,1 0,1 1,1zm-16 -36c-5,-14 -11,-28 -17,-42l0 0c6,14 12,28 17,42zm-7 -1669c38,-23 76,-45 114,-68 -38,23 -76,45 -114,68zm116 -69c1,-1 3,-2 5,-3 -2,1 -4,2 -5,3zm9 -6c1,0 2,-1 2,-1 0,0 -1,1 -2,1zm9 -5c0,0 1,-1 1,-1 0,0 -1,1 -1,1z"/>
  <path class="fil22" d="M26775 22511c-5,0 -8,-4 -12,-13l0 0c-1,-2 -2,-4 -2,-6 -1,-1 -1,-2 -2,-3 0,-1 0,-2 -1,-3 0,0 0,-1 -1,-2 0,-1 -1,-3 -1,-4 -1,0 -1,0 -1,-1 -5,-12 -10,-24 -15,-35 -5,-14 -11,-28 -17,-42 525,-495 181,-1298 6,-1625 1,-1 3,-2 4,-2 38,-23 76,-45 114,-68 1,-1 1,-1 2,-1 1,-1 3,-2 5,-3 1,-1 3,-2 4,-3 1,0 2,-1 2,-1 3,-2 5,-3 7,-4 0,0 1,-1 1,-1 2,-1 5,-3 7,-4 7,-5 13,-7 18,-7 8,0 15,5 22,15 6,9 13,17 19,26l0 0c7,8 13,16 20,24l34 44c2,2 4,4 6,7 1,1 2,3 3,4l795 1001 0 0c14,18 29,36 43,53 7,7 9,12 9,16 0,7 -6,11 -15,16 -313,185 -626,371 -939,556 -35,20 -69,40 -103,61 -5,3 -9,5 -12,5z"/>
  <path class="fil23" d="M27919 21002c21,33 14,76 -16,100 -56,46 -158,111 -226,48 -98,-90 -141,-376 -90,-378 50,-2 309,101 304,155 -3,31 13,51 28,75z"/>
  <path class="fil24" d="M42943 23433c191,-499 379,-997 515,-1516 419,-1595 318,-2758 302,-3317 -2,-74 117,-94 127,-18 36,263 43,529 45,794 3,447 -24,895 -82,1342 308,80 599,-40 837,-255 409,-371 556,-866 621,-1414 6,-56 8,-109 54,-141 10,-29 52,-38 62,5 65,67 34,201 24,287 -135,1167 -845,1733 -1417,1728 -62,-1 -138,-4 -206,-22 -41,279 -94,556 -159,830 -124,523 -297,1027 -487,1527 -651,1709 -859,2582 -1044,3076 -29,100 -176,58 -150,-42 9,-36 517,-1720 958,-2864z"/>
  <path class="fil24" d="M40333 18940c6,-37 27,-61 35,-96 11,-45 85,-49 93,0 4,29 20,47 27,76 19,94 -29,626 97,1440 33,216 70,431 142,637 116,334 329,694 592,921 8,-476 37,-952 94,-1426 35,-283 78,-565 130,-846 26,-136 53,-272 83,-408 31,-142 60,-279 129,-408 20,-39 80,-21 80,23 0,126 -25,243 -51,366 -27,122 -51,244 -74,367 -169,911 -233,1721 -233,2633 280,-352 524,-773 705,-1186 218,-497 364,-1032 426,-1575 17,-152 27,-304 30,-457 2,-79 3,-159 5,-238 1,-40 16,-163 85,-127 63,33 57,107 62,171 6,71 7,141 6,211 -2,135 -9,270 -22,405 -90,975 -458,1938 -1017,2728 -86,120 -174,249 -277,354 23,1560 260,3641 264,3798 1,35 0,26 -12,39 -51,51 -111,67 -130,13 -35,-103 -30,-199 -83,-769 -96,-1014 -203,-3340 -202,-3434 -332,-239 -568,-605 -721,-989 -82,-203 -130,-412 -166,-629 -121,-737 -118,-1473 -97,-1594z"/>
  <path class="fil25" d="M42615 17667c-12,-113 -19,-228 -19,-345 0,-1304 811,-2362 1811,-2362 1000,0 1811,1058 1811,2362 0,117 -7,232 -19,345l-3584 0z"/>
  <path class="fil8" d="M40565 17086c-12,-158 -19,-320 -19,-485 0,-1840 811,-3332 1811,-3332 1000,0 1811,1492 1811,3332 0,165 -6,327 -19,485l-3584 0z"/>
  <path class="fil25" d="M44127 19128c16,-159 24,-321 24,-486 0,-1840 -1028,-3332 -2295,-3332 -1268,0 -2296,1492 -2296,3332 0,165 8,327 24,486l4543 0z"/>
  <path class="fil8" d="M42364 15310c634,0 1200,474 1574,1216 190,-68 392,-105 602,-105 1125,0 2037,1058 2037,2362 0,117 -8,232 -22,345l-6206 0c-14,-159 -22,-321 -22,-486 0,-1840 912,-3332 2037,-3332z"/>
  <polygon class="fil18" points="2284,26411 45911,26411 45911,26297 2284,26297 "/>
 </g>
</svg>
