<?xml version="1.0" encoding="UTF-8"?>
<!DOCTYPE svg PUBLIC "-//W3C//DTD SVG 1.1//EN" "http://www.w3.org/Graphics/SVG/1.1/DTD/svg11.dtd">
<!-- Creator: CorelDRAW X8 -->
<svg xmlns="http://www.w3.org/2000/svg" xml:space="preserve" width="1.7in" height="2.5in" version="1.1" style="shape-rendering:geometricPrecision; text-rendering:geometricPrecision; image-rendering:optimizeQuality; fill-rule:evenodd; clip-rule:evenodd"
viewBox="0 0 1700 2500"
 xmlns:xlink="http://www.w3.org/1999/xlink">
 <defs>
  <style type="text/css">
   <![CDATA[
    .fil0 {fill:#EAE8E8;fill-rule:nonzero}
    .fil5 {fill:#C5DD85;fill-rule:nonzero}
    .fil8 {fill:#B3B0C0;fill-rule:nonzero}
    .fil3 {fill:#B5CA7A;fill-rule:nonzero}
    .fil1 {fill:#9BAF6C;fill-rule:nonzero}
    .fil6 {fill:#8AB56B;fill-rule:nonzero}
    .fil4 {fill:#7CA162;fill-rule:nonzero}
    .fil2 {fill:#678654;fill-rule:nonzero}
    .fil7 {fill:#6B6B8D;fill-rule:nonzero}
    .fil9 {fill:#50506F;fill-rule:nonzero}
   ]]>
  </style>
 </defs>
 <g id="Layer_x0020_1">
  <metadata id="CorelCorpID_0Corel-Layer"/>
  <g id="_1370228123424">
   <path class="fil0" d="M850 2355c-422,0 -764,-35 -764,-79 0,-30 165,-56 407,-69 75,55 128,90 128,90l486 0c0,0 52,-34 125,-88 228,13 382,38 382,67 0,44 -342,79 -764,79z"/>
   <path class="fil1" d="M1090 1867c0,0 -5,-4 -13,-11 -9,-8 -21,-21 -35,-39 -26,-37 -56,-98 -75,-177 -20,-78 -31,-173 -33,-274 -2,-51 -1,-104 1,-157 1,-53 4,-107 5,-156 0,-110 6,-225 26,-328 10,-52 23,-102 39,-147 9,-23 18,-44 27,-65 5,-10 10,-20 15,-30 2,-4 5,-9 7,-14 3,-4 6,-9 8,-13 42,-72 89,-120 124,-147 9,-7 17,-13 24,-18 7,-4 13,-8 18,-11 10,-7 15,-10 15,-10 0,0 -3,6 -7,16 -2,6 -5,12 -8,20 -4,7 -8,15 -11,26 -15,39 -31,96 -40,165 -9,69 -9,152 -5,244 4,94 12,197 13,314 -1,65 -9,122 -17,176 -9,54 -19,105 -29,153 -20,95 -39,178 -50,249 -12,71 -15,129 -11,170 2,20 5,37 8,48 3,11 4,16 4,16z"/>
   <path class="fil2" d="M937 2201c0,0 -6,-5 -17,-14 -6,-4 -13,-10 -20,-18 -9,-7 -17,-16 -26,-27 -37,-42 -79,-116 -109,-213 -30,-97 -49,-215 -56,-344 -3,-65 -4,-132 -2,-201 1,-68 5,-139 9,-208 0,-16 1,-33 2,-50 0,-8 0,-16 0,-24 1,-8 1,-17 1,-25 0,-34 1,-68 1,-101 1,-67 3,-133 6,-197 7,-126 22,-244 45,-340 23,-97 54,-172 80,-221 13,-25 25,-43 33,-55 7,-12 12,-18 12,-18 0,0 -1,8 -3,22 -1,14 -4,35 -5,61 -3,53 -3,129 5,221 8,92 23,200 40,323 8,62 16,127 21,196 3,34 6,70 7,106 0,10 0,19 1,28 0,10 0,19 0,29 -1,19 -1,38 -2,57 -4,76 -12,146 -20,213 -8,67 -17,131 -25,191 -15,121 -27,228 -29,319 -2,90 7,163 22,213 3,12 7,24 10,33 4,9 7,18 10,24 6,13 9,20 9,20z"/>
   <path class="fil1" d="M784 2006c0,0 -8,-23 -20,-65 -6,-21 -13,-47 -20,-77 -8,-30 -15,-64 -25,-101 -37,-149 -80,-351 -111,-575 -32,-223 -47,-429 -54,-583 0,-38 -3,-73 -4,-103 -1,-31 -2,-58 -2,-80 -1,-44 0,-68 0,-68 0,0 14,20 37,58 11,19 24,42 39,69 15,27 33,58 49,94 67,141 143,344 177,579 7,59 12,116 16,172 1,14 2,28 2,41 0,14 0,28 0,41 0,27 0,53 -1,79 -1,25 -2,50 -3,75 -1,24 -4,48 -7,70 -5,46 -10,88 -16,127 -5,38 -14,73 -20,103 -7,31 -13,57 -18,78 -11,43 -19,66 -19,66z"/>
   <path class="fil2" d="M729 1895c0,0 -12,-20 -32,-58 -19,-37 -46,-92 -75,-161 -29,-68 -60,-151 -91,-241 -7,-23 -15,-46 -22,-70 -4,-12 -7,-24 -11,-37 -4,-12 -7,-24 -11,-36 -15,-49 -30,-101 -42,-154 -3,-11 -6,-23 -9,-34 -3,-12 -7,-23 -10,-34 -3,-11 -7,-23 -11,-34 -4,-12 -7,-23 -11,-35 -16,-46 -34,-92 -49,-138 -31,-92 -55,-181 -66,-259 -2,-19 -4,-38 -6,-56 0,-18 -1,-35 -1,-50 1,-16 2,-31 4,-44 1,-13 4,-26 6,-36 3,-22 11,-38 14,-49 4,-10 6,-15 6,-15 0,0 2,5 5,16 3,11 5,26 13,46 4,9 7,20 12,31 5,11 10,23 16,35 7,13 14,26 21,40 8,13 17,27 26,42 36,60 85,128 137,210 26,42 52,85 77,136 7,12 12,26 18,39 6,13 12,27 17,41 6,15 12,29 16,44 4,15 9,31 12,45 13,55 24,109 33,162 2,13 5,26 7,39 1,13 3,26 4,39 3,25 5,50 7,74 9,98 10,185 9,260 -1,74 -4,134 -7,176 -3,42 -6,66 -6,66z"/>
   <path class="fil1" d="M604 1979c0,0 -11,-15 -27,-42 -17,-27 -39,-67 -64,-116 -48,-99 -102,-235 -143,-380 -21,-72 -38,-140 -54,-203 -10,-30 -16,-61 -25,-88 -4,-15 -8,-28 -12,-41 -4,-13 -8,-26 -13,-38 -7,-25 -16,-46 -24,-66 -3,-10 -7,-19 -10,-28 -4,-8 -8,-16 -11,-23 -13,-28 -20,-45 -20,-45 0,0 17,5 47,18 7,3 16,7 25,11 8,5 17,10 27,16 20,12 43,26 65,45 12,9 23,19 36,30 11,11 22,23 34,36 6,6 12,13 18,19 6,7 11,14 17,21 11,15 22,30 33,46 42,64 78,140 102,223 23,82 33,162 36,234 3,72 -1,137 -7,192 -6,54 -14,99 -20,130 -6,31 -10,49 -10,49z"/>
   <path class="fil1" d="M1479 867c0,0 0,15 -3,39 -1,12 -2,26 -4,42 -2,17 -5,35 -7,55 -6,39 -12,84 -23,132 -9,47 -22,97 -39,147 -16,50 -36,96 -56,139 -9,22 -20,42 -29,62 -10,20 -19,39 -28,56 -9,18 -16,34 -24,48 -8,15 -14,28 -19,38 -11,22 -18,34 -18,34 0,0 -8,-11 -20,-33 -7,-10 -14,-24 -20,-40 -7,-15 -15,-34 -21,-54 -6,-21 -12,-44 -16,-69 -5,-25 -7,-52 -8,-80 0,-56 7,-118 27,-179 21,-61 52,-114 85,-158 34,-44 70,-79 104,-105 16,-14 32,-25 46,-34 15,-9 28,-17 38,-23 22,-11 35,-17 35,-17z"/>
   <path class="fil2" d="M1076 1854c0,0 -10,-18 -26,-52 -9,-17 -16,-38 -25,-63 -4,-12 -10,-26 -13,-41 -4,-14 -8,-30 -11,-46 -9,-33 -12,-68 -17,-107 -3,-20 -3,-40 -4,-61 -1,-20 -3,-42 -1,-63 1,-87 13,-182 38,-278 26,-96 63,-184 104,-260 42,-76 87,-140 131,-191 10,-12 21,-24 31,-35 10,-11 20,-21 30,-30 19,-18 35,-33 50,-45 30,-23 46,-34 46,-34 0,0 -4,21 -14,55 -5,17 -9,39 -15,63 -3,12 -7,25 -10,39 -3,14 -6,28 -9,43 -15,60 -29,132 -47,209 -17,78 -37,161 -61,249 -46,174 -98,330 -130,448 -4,15 -8,29 -12,43 -4,13 -6,26 -9,38 -6,24 -12,45 -15,63 -6,35 -11,56 -11,56z"/>
   <path class="fil3" d="M481 1784c0,0 2,-2 8,-7 5,-4 12,-12 20,-23 16,-22 33,-58 45,-105 12,-46 18,-103 19,-163 1,-30 1,-61 0,-93 -1,-31 -3,-63 -3,-92 0,-66 -4,-134 -16,-196 -6,-31 -14,-60 -23,-87 -5,-13 -10,-26 -16,-38 -3,-6 -6,-12 -9,-18 -1,-3 -3,-6 -4,-8 -2,-3 -3,-6 -5,-8 -25,-43 -53,-71 -74,-88 -4,-4 -9,-7 -14,-10 -4,-3 -7,-5 -10,-7 -6,-4 -9,-6 -9,-6 0,0 1,4 4,10 1,3 3,7 5,11 2,5 4,10 6,16 9,23 18,57 24,98 5,41 5,90 3,145 -2,56 -7,117 -7,187 0,38 4,72 9,104 5,32 11,63 17,91 12,56 23,106 30,148 7,42 9,77 7,101 -1,12 -3,22 -5,28 -1,7 -2,10 -2,10z"/>
   <path class="fil4" d="M571 1982c0,0 4,-2 11,-8 3,-2 7,-6 12,-10 5,-4 9,-10 15,-16 22,-26 47,-69 65,-127 18,-57 29,-128 33,-205 2,-38 2,-78 1,-119 -1,-41 -3,-82 -5,-123 0,-10 -1,-20 -1,-30 0,-5 0,-10 -1,-14 0,-5 0,-11 0,-16 0,-20 0,-40 -1,-59 0,-40 -1,-79 -3,-117 -4,-76 -13,-145 -27,-203 -14,-57 -32,-102 -48,-131 -7,-14 -14,-25 -19,-32 -4,-7 -7,-11 -7,-11 0,0 1,4 1,13 1,8 3,21 4,36 2,32 1,77 -4,131 -4,55 -13,119 -23,192 -5,37 -9,76 -13,117 -1,20 -3,41 -4,63 0,6 0,11 0,16 0,6 0,12 0,18 0,11 0,23 1,34 2,45 7,86 12,126 4,40 10,78 14,114 10,71 17,135 18,189 1,54 -4,97 -13,127 -2,7 -4,14 -6,19 -2,6 -4,11 -6,15 -4,7 -6,11 -6,11z"/>
   <path class="fil3" d="M662 1867c0,0 5,-14 12,-39 4,-13 8,-28 12,-46 5,-17 9,-38 15,-60 22,-88 48,-209 66,-341 19,-133 28,-256 32,-347 0,-23 2,-43 3,-61 0,-19 1,-34 1,-47 0,-26 -1,-41 -1,-41 0,0 -8,12 -21,34 -7,12 -15,25 -24,42 -8,16 -19,34 -28,55 -40,84 -86,205 -106,344 -4,35 -7,69 -9,103 -1,8 -1,16 -1,24 0,8 0,16 0,24 0,16 0,32 0,47 1,15 1,30 2,45 1,14 3,28 4,42 3,27 6,52 10,75 3,23 8,43 11,61 4,18 8,34 11,47 7,25 11,39 11,39z"/>
   <path class="fil4" d="M695 1801c0,0 7,-12 19,-35 11,-22 28,-54 45,-95 17,-41 36,-90 54,-144 4,-13 9,-27 13,-41 2,-7 4,-15 6,-22 3,-7 5,-14 7,-22 9,-29 18,-59 25,-91 2,-7 4,-14 5,-21 2,-6 4,-13 6,-20 2,-6 4,-13 7,-20 2,-7 4,-13 7,-20 9,-28 19,-55 28,-82 19,-55 33,-108 40,-154 1,-12 2,-23 3,-33 0,-11 1,-21 1,-30 -1,-10 -2,-19 -2,-27 -1,-7 -3,-15 -4,-21 -2,-13 -6,-22 -9,-29 -2,-6 -3,-9 -3,-9 0,0 -1,3 -3,10 -2,6 -3,15 -8,27 -2,5 -4,12 -7,18 -3,7 -6,14 -9,21 -4,8 -9,15 -13,24 -5,8 -10,16 -15,25 -22,36 -51,76 -82,125 -15,24 -31,50 -46,81 -3,7 -7,15 -10,23 -4,7 -7,16 -11,24 -3,9 -6,17 -9,26 -2,9 -5,19 -7,27 -8,33 -14,65 -20,96 -1,8 -2,16 -3,23 -1,8 -2,16 -3,23 -2,15 -3,30 -4,45 -6,58 -6,110 -5,154 0,44 2,80 4,105 1,25 3,39 3,39z"/>
   <path class="fil3" d="M769 1850c0,0 7,-8 17,-24 10,-16 23,-40 37,-69 29,-59 61,-140 86,-226 12,-43 22,-83 32,-121 5,-18 9,-36 14,-52 3,-9 5,-17 7,-25 3,-7 6,-15 8,-22 4,-15 10,-27 14,-39 3,-6 5,-12 7,-17 2,-5 4,-9 6,-13 8,-17 12,-27 12,-27 0,0 -10,3 -28,11 -4,1 -9,4 -15,6 -5,3 -10,6 -16,10 -12,7 -26,15 -39,26 -6,6 -13,12 -21,18 -6,7 -13,14 -20,21 -4,4 -7,8 -11,12 -3,4 -6,8 -10,13 -6,8 -13,17 -20,27 -24,38 -46,83 -60,132 -14,49 -20,96 -22,139 -1,43 1,82 5,114 3,33 8,59 11,78 4,18 6,28 6,28z"/>
   <path class="fil3" d="M250 1190c0,0 0,9 1,23 1,7 2,16 3,25 1,10 2,21 4,33 3,23 7,50 13,78 6,28 13,58 23,87 10,30 22,58 34,83 5,13 12,25 17,37 6,12 11,23 17,33 5,11 9,20 14,29 5,9 8,16 11,22 7,13 11,21 11,21 0,0 5,-7 12,-20 4,-6 8,-14 12,-24 4,-9 9,-20 12,-32 4,-13 8,-26 10,-41 3,-15 4,-31 4,-48 1,-33 -4,-70 -16,-106 -12,-36 -30,-67 -50,-94 -20,-26 -42,-47 -62,-62 -9,-8 -19,-15 -27,-20 -9,-6 -17,-10 -23,-14 -13,-7 -20,-10 -20,-10z"/>
   <path class="fil4" d="M489 1776c0,0 6,-10 16,-30 5,-10 9,-23 15,-38 2,-7 5,-16 7,-24 2,-9 5,-18 7,-28 5,-19 7,-40 10,-63 1,-12 2,-24 2,-36 1,-12 2,-25 1,-38 -1,-52 -8,-108 -23,-165 -15,-57 -37,-110 -62,-155 -25,-45 -51,-83 -77,-113 -7,-7 -13,-14 -19,-21 -6,-6 -12,-12 -18,-18 -11,-10 -21,-20 -30,-26 -17,-14 -27,-21 -27,-21 0,0 3,13 8,33 3,10 6,23 10,38 1,7 3,14 5,23 2,8 4,16 6,25 8,36 17,78 28,124 10,46 22,96 36,148 27,104 58,196 77,267 2,8 5,17 7,25 2,8 4,15 6,23 3,14 7,27 8,37 4,21 7,33 7,33z"/>
   <path class="fil5" d="M1257 1854c0,0 -3,-3 -8,-7 -5,-5 -12,-12 -20,-23 -16,-22 -34,-59 -45,-105 -12,-47 -18,-103 -20,-163 0,-31 0,-62 1,-93 1,-32 3,-64 3,-93 0,-66 4,-134 16,-195 5,-31 14,-61 23,-87 5,-14 10,-27 16,-39 3,-6 6,-12 9,-18 1,-2 3,-5 4,-8 2,-3 3,-5 5,-8 25,-42 53,-71 73,-87 5,-5 10,-8 15,-11 4,-2 7,-5 10,-7 6,-3 9,-5 9,-5 0,0 -1,3 -4,9 -1,3 -3,7 -5,12 -2,4 -4,9 -6,15 -9,23 -19,57 -24,99 -5,41 -5,90 -3,145 2,55 7,116 7,186 0,39 -5,73 -9,105 -6,32 -12,62 -17,90 -12,57 -24,107 -30,149 -7,42 -9,76 -7,101 1,12 3,21 5,28 1,6 2,10 2,10z"/>
   <path class="fil6" d="M1166 2052c0,0 -3,-3 -10,-8 -3,-3 -7,-6 -12,-11 -5,-4 -10,-10 -15,-16 -22,-25 -47,-69 -65,-127 -18,-57 -29,-127 -33,-204 -2,-39 -2,-79 -1,-119 0,-41 3,-83 5,-124 0,-10 1,-20 1,-30 0,-4 0,-9 1,-14 0,-5 0,-10 0,-15 0,-20 0,-40 1,-60 0,-40 1,-79 3,-117 4,-75 13,-145 27,-202 13,-58 32,-102 47,-131 8,-15 15,-26 20,-33 4,-7 7,-11 7,-11 0,0 -1,5 -2,13 0,9 -2,21 -3,37 -2,31 -2,76 3,131 5,54 14,119 24,192 4,36 9,75 13,116 1,21 3,42 3,64 1,5 1,10 1,16 0,6 0,11 0,17 0,12 0,23 -1,34 -2,45 -7,87 -12,127 -5,39 -10,77 -14,113 -10,72 -17,136 -18,190 -1,53 4,97 13,126 2,8 4,14 6,20 2,5 4,10 6,14 4,8 5,12 5,12z"/>
   <path class="fil5" d="M1076 1936c0,0 -5,-14 -12,-39 -4,-12 -8,-28 -13,-45 -4,-18 -8,-38 -14,-60 -22,-89 -48,-209 -66,-342 -19,-133 -28,-255 -32,-346 0,-23 -2,-44 -3,-62 0,-18 -1,-34 -1,-47 0,-26 0,-41 0,-41 0,0 9,12 22,35 7,11 15,25 24,41 8,16 19,35 28,56 40,83 86,204 106,344 4,35 7,69 9,102 1,8 1,16 1,25 0,8 0,16 0,24 0,16 0,31 0,47 -1,15 -1,30 -2,44 -1,15 -3,29 -4,42 -3,27 -6,52 -10,75 -3,23 -8,44 -12,62 -4,18 -7,33 -11,46 -6,25 -10,39 -10,39z"/>
   <path class="fil6" d="M1043 1870c0,0 -7,-12 -19,-34 -11,-22 -28,-55 -45,-96 -17,-40 -36,-90 -54,-143 -4,-14 -9,-28 -13,-42 -2,-7 -4,-14 -6,-21 -3,-8 -5,-15 -7,-22 -9,-29 -18,-60 -25,-91 -2,-7 -4,-14 -5,-21 -2,-7 -4,-13 -6,-20 -2,-7 -4,-14 -7,-20 -2,-7 -4,-14 -7,-21 -9,-27 -19,-55 -28,-82 -19,-54 -33,-107 -40,-154 -1,-11 -2,-23 -3,-33 0,-11 -1,-21 -1,-30 1,-10 2,-18 2,-26 1,-8 3,-15 4,-22 2,-12 6,-22 8,-28 3,-6 4,-10 4,-10 0,0 1,4 3,10 2,7 3,16 8,27 2,6 4,12 7,19 3,6 6,13 9,21 4,7 8,15 13,23 5,8 10,17 15,26 22,35 51,76 81,124 16,25 32,51 46,81 4,7 8,15 11,23 4,8 7,16 10,25 4,8 7,17 10,26 2,9 5,18 7,27 8,32 14,64 20,96 1,7 2,15 3,23 1,7 2,15 3,23 2,15 3,30 4,44 6,58 6,110 5,154 0,44 -2,80 -4,105 -2,25 -3,39 -3,39z"/>
   <path class="fil5" d="M968 1920c0,0 -6,-9 -16,-25 -10,-16 -23,-39 -37,-69 -29,-58 -61,-139 -86,-225 -12,-43 -22,-84 -32,-121 -5,-18 -9,-37 -14,-53 -3,-8 -5,-16 -7,-24 -3,-8 -6,-15 -8,-22 -4,-15 -10,-28 -14,-40 -3,-5 -5,-11 -7,-16 -2,-5 -4,-10 -6,-14 -8,-16 -12,-27 -12,-27 0,0 10,3 28,11 4,2 9,4 15,7 5,2 10,5 16,9 12,7 26,15 39,27 6,5 13,11 21,18 6,6 13,13 20,21 4,4 7,8 11,11 3,4 6,9 10,13 6,9 13,18 20,27 24,38 46,84 60,132 14,49 20,97 22,140 1,43 -1,81 -5,114 -3,32 -8,59 -11,77 -4,18 -7,29 -7,29z"/>
   <path class="fil5" d="M1488 1260c0,0 0,8 -1,22 -1,7 -2,16 -3,26 -1,9 -2,20 -4,32 -3,23 -7,50 -13,78 -6,29 -13,58 -23,88 -10,30 -22,57 -34,83 -5,12 -12,25 -17,36 -6,12 -12,23 -17,34 -5,10 -10,20 -14,28 -5,9 -8,17 -12,23 -6,13 -10,20 -10,20 0,0 -5,-7 -12,-19 -4,-7 -8,-15 -12,-24 -4,-10 -9,-21 -12,-33 -4,-12 -8,-26 -10,-41 -3,-14 -4,-30 -4,-47 -1,-34 4,-70 16,-106 12,-36 30,-68 50,-94 20,-26 41,-47 61,-63 10,-8 20,-14 28,-20 9,-5 16,-10 23,-13 13,-7 20,-10 20,-10z"/>
   <path class="fil6" d="M1249 1846c0,0 -6,-11 -16,-31 -5,-10 -9,-23 -15,-37 -2,-8 -5,-16 -7,-25 -2,-8 -5,-17 -7,-27 -5,-20 -7,-41 -10,-64 -1,-12 -2,-23 -2,-36 -1,-12 -2,-25 -1,-38 1,-51 8,-108 23,-165 15,-57 37,-109 62,-154 25,-45 51,-84 77,-113 7,-8 13,-15 19,-21 6,-7 12,-13 18,-18 11,-11 21,-20 30,-27 17,-14 27,-20 27,-20 0,0 -3,12 -8,33 -3,10 -6,23 -10,37 -1,7 -3,15 -5,23 -2,8 -4,17 -6,26 -9,35 -17,78 -28,124 -10,46 -22,96 -36,148 -27,103 -58,196 -77,266 -3,9 -5,17 -7,25 -3,8 -4,16 -6,23 -3,14 -7,27 -8,37 -4,21 -7,34 -7,34z"/>
   <path class="fil7" d="M871 1450l-653 0c0,0 0,541 139,653 139,111 264,194 264,194l486 0c0,0 125,-83 264,-194 139,-112 139,-653 139,-653l-639 0z"/>
   <path class="fil8" d="M493 2207c-40,-30 -87,-65 -136,-104 0,0 0,-1 0,-1 0,0 0,1 0,1 49,39 96,74 136,104l0 0z"/>
   <path class="fil8" d="M357 2102c0,0 0,0 0,0 0,0 0,0 0,0zm-1 0c0,0 0,0 0,0 0,0 0,0 0,0zm0 0c0,0 0,0 0,0 0,0 0,0 0,0zm0 0c0,0 0,0 0,0 0,0 0,0 0,0zm0 0c0,0 0,0 0,0 0,0 0,0 0,0zm0 0c0,-1 -1,-1 -1,-1 0,0 1,0 1,1zm-1 -1c0,0 0,0 0,0 0,0 0,0 0,0zm0 0c0,0 0,0 0,0 0,0 0,0 0,0zm0 0c0,0 0,0 0,0 0,0 0,0 0,0zm0 0c-1,0 -1,-1 -1,-1 0,0 0,1 1,1zm-1 -1c0,0 0,0 0,0 0,0 0,0 0,0zm0 0c-1,0 -1,0 -1,0 0,0 0,0 1,0zm-1 0c0,-1 0,-1 0,-1 0,0 0,0 0,1zm0 -1c0,0 -1,0 -1,-1 0,1 1,1 1,1zm-1 -1c0,0 0,0 0,0 0,0 0,0 0,0zm0 0c0,0 0,0 0,0 0,0 0,0 0,0zm0 0c-1,0 -1,-1 -2,-1 1,0 1,1 2,1zm-2 -1c0,0 0,0 0,0 0,0 0,0 0,0zm0 0c0,0 0,0 0,0 0,0 0,0 0,0zm0 0c0,-1 -1,-1 -1,-1 0,0 1,0 1,1zm-1 -1c0,0 0,-1 0,-1 0,0 0,1 0,1zm0 -1c0,0 0,0 0,0 0,0 0,0 0,0zm0 0c-1,0 -1,0 -1,-1 0,1 0,1 1,1zm-1 -1c0,0 0,0 0,0 0,0 0,0 0,0zm0 0c0,0 -1,0 -1,0 0,0 1,0 1,0zm-1 0c0,0 0,0 0,0 0,0 0,0 0,0zm0 0c0,0 0,0 0,0 0,0 0,0 0,0zm0 0c0,-1 0,-1 -1,-1 1,0 1,0 1,1zm-1 -1c0,0 0,0 0,0 0,0 0,0 0,0zm0 0c0,0 0,0 0,0 0,0 0,0 0,0zm0 0c0,0 0,0 0,0 0,0 0,0 0,0zm0 -1c0,0 0,0 0,0 0,0 0,0 0,0zm0 0c0,0 0,0 0,0 0,0 0,0 0,0zm-1 0c0,0 0,0 0,0 0,0 0,0 0,0zm0 0c0,0 0,0 0,0 0,0 0,0 0,0zm0 -1c0,0 0,0 0,0 0,0 0,0 0,0zm0 0c0,0 0,0 0,0 0,0 0,0 0,0zm-1 0c0,0 0,0 0,0 0,0 0,0 0,0zm0 0c0,0 0,0 0,0 0,0 0,0 0,0zm0 0c0,0 0,0 0,0 0,0 0,0 0,0zm0 0c0,-1 0,-1 0,-1 0,0 0,0 0,1zm0 -1c0,0 0,0 0,0 0,0 0,0 0,0zm-1 0c0,0 0,0 0,0 0,0 0,0 0,0zm0 0c0,0 0,0 0,0 0,0 0,0 0,0zm0 0c0,0 0,0 0,0 0,0 0,0 0,0zm0 -1c0,0 0,0 0,0 0,0 0,0 0,0zm0 0c0,0 0,0 0,0 0,0 0,0 0,0zm0 0c0,0 0,0 0,0 0,0 0,0 0,0zm-1 -1c0,0 0,0 0,0 0,0 0,0 0,0zm0 0l0 0c0,0 0,0 0,0zm0 0c0,0 0,0 0,0 0,0 0,0 0,0z"/>
   <path class="fil9" d="M1107 2297l-486 0c0,0 -53,-35 -128,-90 -40,-30 -87,-65 -136,-104 0,0 0,-1 0,-1 0,0 0,0 0,0 0,0 0,0 0,0 0,0 0,0 -1,0 0,0 0,0 0,0 0,0 0,0 0,0 0,0 0,0 0,0 0,0 0,0 0,0 0,0 0,0 0,0 0,0 0,0 0,0 0,0 0,0 0,0 0,0 0,0 0,0 0,-1 -1,-1 -1,-1 0,0 0,0 0,0 0,0 0,0 0,0 0,0 0,0 0,0 0,0 0,0 0,0 0,0 0,0 0,0 0,0 0,0 0,0 0,0 0,0 0,0 -1,0 -1,-1 -1,-1l0 0c0,0 0,0 0,0l0 0c-1,0 -1,0 -1,0 0,0 0,0 0,0 0,-1 0,-1 0,-1 0,0 0,0 0,0 0,0 -1,0 -1,-1l0 0c0,0 0,0 0,0 0,0 0,0 0,0 0,0 0,0 0,0 0,0 0,0 0,0 -1,0 -1,-1 -2,-1 0,0 0,0 0,0 0,0 0,0 0,0 0,0 0,0 0,0 0,0 0,0 0,0l0 0c0,-1 -1,-1 -1,-1 0,0 0,0 0,0 0,0 0,-1 0,-1 0,0 0,0 0,0 0,0 0,0 0,0l0 0c-1,0 -1,0 -1,-1l0 0c0,0 0,0 0,0 0,0 0,0 0,0 0,0 -1,0 -1,0 0,0 0,0 0,0 0,0 0,0 0,0 0,0 0,0 0,0 0,0 0,0 0,0l0 0c0,-1 0,-1 -1,-1l0 0c0,0 0,0 0,0 0,0 0,0 0,0 0,0 0,0 0,0 0,0 0,0 0,0 0,0 0,0 0,0 0,0 0,0 0,-1 0,0 0,0 0,0 0,0 0,0 0,0 0,0 0,0 0,0 0,0 -1,0 -1,0 0,0 0,0 0,0 0,0 0,0 0,0 0,0 0,0 0,0 0,0 0,0 0,-1 0,0 0,0 0,0 0,0 0,0 0,0 0,0 0,0 0,0 0,0 0,0 -1,0 0,0 0,0 0,0 0,0 0,0 0,0 0,0 0,0 0,0 0,0 0,0 0,0 0,0 0,0 0,0 0,0 0,0 0,0 0,-1 0,-1 0,-1 0,0 0,0 0,0 0,0 0,0 0,0 0,0 0,0 -1,0 0,0 0,0 0,0 0,0 0,0 0,0 0,0 0,0 0,0 0,0 0,0 0,0 0,0 0,0 0,0 0,0 0,-1 0,-1 0,0 0,0 0,0 0,0 0,0 0,0 0,0 0,0 0,0 0,0 0,0 0,0 0,0 0,0 0,0 -1,0 -1,0 -1,-1 0,0 0,0 0,0 0,0 0,0 0,0 0,0 0,0 0,0 0,0 0,0 0,0 0,0 0,0 0,0 -52,-57 -82,-179 -100,-300 118,216 281,351 462,351 263,0 489,-283 590,-689l216 0c0,0 0,541 -139,653 -139,111 -264,194 -264,194z"/>
  </g>
 </g>
</svg>
