<?xml version="1.0" encoding="UTF-8"?>
<!DOCTYPE svg PUBLIC "-//W3C//DTD SVG 1.1//EN" "http://www.w3.org/Graphics/SVG/1.1/DTD/svg11.dtd">
<!-- Creator: CorelDRAW X8 -->
<svg xmlns="http://www.w3.org/2000/svg" xml:space="preserve" width="3in" height="3in" version="1.1" style="shape-rendering:geometricPrecision; text-rendering:geometricPrecision; image-rendering:optimizeQuality; fill-rule:evenodd; clip-rule:evenodd"
viewBox="0 0 3000 3000"
 xmlns:xlink="http://www.w3.org/1999/xlink">
 <defs>
  <style type="text/css">
   <![CDATA[
    .fil9 {fill:#FEFEFE}
    .fil3 {fill:#F5875E}
    .fil2 {fill:#F5AD7E}
    .fil5 {fill:#F2937B}
    .fil0 {fill:#F28B35}
    .fil6 {fill:#49332C}
    .fil8 {fill:#392D2B}
    .fil10 {fill:#6B6983}
    .fil1 {fill:#5E5C72}
    .fil12 {fill:#4E3A57}
    .fil4 {fill:#2D2E2F}
    .fil11 {fill:#403F4F}
    .fil7 {fill:#403248}
   ]]>
  </style>
 </defs>
 <g id="Layer_x0020_1">
  <metadata id="CorelCorpID_0Corel-Layer"/>
  <g id="_2679971861200">
   <path class="fil0" d="M710 394l1580 0c224,0 408,183 408,407l0 1580c0,225 -184,408 -408,408l-1580 0c-224,0 -408,-183 -408,-408l0 -1580c0,-224 184,-407 408,-407z"/>
   <path class="fil1" d="M1500 2889l-986 0c-11,-504 377,-797 710,-906 27,-141 20,-323 20,-323l512 0c0,0 -7,182 20,323 333,109 721,402 710,906l-986 0z"/>
   <path class="fil2" d="M957 1256c-2,-27 -110,-58 -146,28 -36,87 29,209 151,219 122,9 86,-12 86,-12l-91 -235z"/>
   <path class="fil2" d="M2045 1256c3,-27 111,-58 146,28 36,87 -28,209 -150,219 -123,9 -87,-12 -87,-12l91 -235z"/>
   <path class="fil3" d="M1759 1841c-111,212 -396,234 -519,8 3,-46 4,-90 5,-123l510 0c1,31 2,72 4,115z"/>
   <path class="fil2" d="M1500 1837c-636,15 -957,-1553 0,-1513 957,-40 636,1528 0,1513z"/>
   <path class="fil4" d="M1286 1109c26,18 32,54 13,79 -18,26 -54,32 -79,13 -26,-18 -32,-54 -13,-79 18,-26 54,-31 79,-13z"/>
   <path class="fil4" d="M1717 1109c-25,18 -31,54 -13,79 19,26 54,32 80,13 25,-18 31,-54 13,-79 -19,-26 -54,-31 -80,-13z"/>
   <path class="fil5" d="M1216 1316c33,25 34,61 3,81 -30,20 -82,16 -114,-9 -32,-24 -34,-61 -3,-81 31,-20 82,-16 114,9z"/>
   <path class="fil5" d="M1787 1316c-32,25 -34,61 -3,81 31,20 82,16 115,-9 32,-24 33,-61 3,-81 -31,-20 -82,-16 -115,9z"/>
   <path class="fil6" d="M1311 954c-2,-1 -4,-1 -6,-2 -25,-9 -46,-12 -73,-10 -26,3 -46,9 -68,22 -10,6 -50,39 -39,51 5,1 45,-19 57,-23 18,-6 33,-8 52,-7 18,1 32,3 48,9 1,1 3,2 4,2 34,16 31,27 53,11 36,-18 -1,-39 -28,-53z"/>
   <path class="fil6" d="M1689 954c2,-1 4,-1 6,-2 25,-9 46,-12 73,-10 26,3 46,9 68,22 10,6 50,39 39,51 -5,1 -45,-19 -57,-23 -18,-6 -33,-8 -52,-7 -18,1 -32,3 -48,9 -1,1 -3,2 -4,2 -34,16 -31,27 -53,11 -36,-18 1,-39 28,-53z"/>
   <path class="fil3" d="M1470 1628c-3,-2 -4,-6 -2,-9 2,-3 6,-5 9,-3 10,6 22,9 34,9 12,0 24,-3 33,-9 3,-2 7,0 9,3 2,3 1,7 -2,9 -12,7 -26,11 -40,11 -15,0 -29,-4 -41,-11z"/>
   <path class="fil3" d="M1495 1379c-4,0 -7,-3 -7,-7 0,-4 3,-7 7,-7 16,0 36,0 51,-3 13,-2 22,-5 22,-11 0,-20 -20,-143 -20,-143 -1,-4 2,-8 6,-8 3,-1 7,2 8,5 0,1 20,125 20,146 0,15 -14,22 -33,25 -17,3 -37,3 -54,3z"/>
   <path class="fil3" d="M2152 1353c0,3 -3,6 -7,6 -3,0 -6,-3 -6,-6 0,-21 -4,-35 -10,-42 -3,-4 -8,-6 -13,-6 -5,0 -12,2 -18,6 -19,10 -37,32 -48,55 -5,12 -9,23 -11,32 10,-7 22,-10 32,-9 5,1 10,2 15,5 4,3 7,8 9,13 3,10 0,22 -10,38 -2,3 -6,4 -9,2 -3,-3 -4,-7 -2,-10 8,-11 9,-20 8,-26 -1,-2 -3,-4 -4,-5 -3,-2 -5,-3 -9,-3 -8,-1 -20,3 -29,12 -2,3 -5,4 -7,4 -6,2 -9,-1 -10,-6l0 -1c0,-2 0,-4 0,-8 2,-9 8,-27 15,-43 11,-26 32,-51 53,-62 9,-5 17,-8 26,-8 9,0 17,4 23,12 8,9 12,25 12,50z"/>
   <path class="fil3" d="M861 1353c0,3 -3,6 -6,6 -4,0 -7,-3 -7,-6 0,-25 4,-41 12,-50 6,-8 14,-12 23,-12 9,0 17,3 26,8 21,11 42,36 53,62 7,16 13,34 15,43 0,4 0,6 0,8l0 1c-1,5 -4,8 -10,6 -2,0 -4,-1 -7,-4 -9,-9 -21,-13 -29,-12 -4,0 -6,1 -9,3 -1,1 -3,3 -4,5 -1,6 0,15 8,26 2,3 1,7 -2,10 -3,2 -7,1 -9,-2 -10,-16 -13,-28 -10,-38 2,-5 5,-10 9,-13 5,-3 10,-4 15,-5 10,-1 22,2 32,9 -2,-9 -6,-20 -11,-32 -11,-23 -29,-45 -48,-55 -6,-4 -13,-6 -18,-6 -5,0 -10,2 -13,6 -6,7 -10,21 -10,42z"/>
   <path class="fil7" d="M2204 455c26,5 23,27 -55,81 72,90 83,233 58,367 -5,29 -86,232 -161,365 -8,12 -3,-264 -83,-374 -40,-56 -73,-122 -156,-178 -1,16 48,59 30,68 -70,33 -267,-1 -357,-25 26,27 52,47 42,57 -31,31 -229,-17 -351,-99 -30,97 -71,201 -118,229 -126,74 -71,386 -104,340 -152,-210 -113,-483 -113,-483 -15,23 -32,43 -43,67 -21,44 -35,-356 154,-408 0,0 -30,-10 -107,4 -28,6 56,-72 146,-82 3,-40 21,-198 136,-249 54,-23 141,-39 130,-33 -55,34 -71,80 -71,80 423,-199 615,13 781,146 50,40 156,120 242,127z"/>
   <path class="fil8" d="M1358 1061c-30,-30 -73,-49 -119,-49 -47,0 -89,19 -120,49 -31,31 -50,73 -50,120 0,47 19,89 50,120 31,30 73,49 120,49 46,0 89,-19 119,-49 31,-31 50,-73 50,-120 0,-47 -19,-89 -50,-120zm-119 -84c56,0 107,23 144,60 37,37 59,88 59,144 0,56 -22,107 -59,144 -37,37 -88,60 -144,60 -57,0 -107,-23 -144,-60 -37,-37 -60,-88 -60,-144 0,-56 23,-107 60,-144 37,-37 87,-60 144,-60l0 0z"/>
   <path class="fil8" d="M1881 1061c-31,-30 -73,-49 -120,-49 -46,0 -89,19 -119,49 -31,31 -50,73 -50,120 0,47 19,89 50,120 30,30 73,49 119,49 47,0 89,-19 120,-49 31,-31 50,-73 50,-120 0,-47 -19,-89 -50,-120zm-120 -84c57,0 107,23 144,60 37,37 60,88 60,144 0,56 -23,107 -60,144 -37,37 -87,60 -144,60 -56,0 -107,-23 -144,-60 -37,-37 -59,-88 -59,-144 0,-56 22,-107 59,-144 37,-37 88,-60 144,-60l0 0z"/>
   <path class="fil8" d="M1046 1164c7,-2 15,1 18,9 2,7 -1,15 -9,17l-121 44c-7,2 -15,-1 -18,-8 -2,-8 2,-15 9,-18l121 -44z"/>
   <path class="fil8" d="M1945 1190c-7,-2 -11,-10 -8,-17 2,-8 10,-11 17,-9l122 44c7,3 11,10 8,18 -2,7 -10,10 -17,8l-122 -44z"/>
   <path class="fil8" d="M1428 1165c-4,7 -12,9 -19,5 -6,-4 -8,-13 -4,-19 0,0 23,-40 95,-40 72,0 95,40 95,40 4,6 2,15 -4,19 -7,4 -15,2 -19,-5 0,0 -16,-26 -72,-26 -56,0 -72,26 -72,26z"/>
   <path class="fil9" d="M1716 1444c-87,32 -350,32 -432,4 45,164 388,162 432,-4z"/>
   <path class="fil10" d="M1235 1812c-7,-3 -26,-3 -26,10 0,14 13,61 4,96 -10,37 -26,68 -7,75 87,34 181,52 276,53 107,3 214,-15 312,-53 18,-7 2,-38 -8,-75 -9,-35 4,-82 4,-96 0,-13 -18,-13 -25,-10 -170,73 -361,73 -530,0z"/>
   <path class="fil11" d="M781 2604c0,-6 5,-10 10,-10 6,0 11,4 11,10l-3 285c0,6 -5,10 -10,10 -6,0 -11,-4 -10,-10l2 -285z"/>
   <path class="fil11" d="M2201 2604c0,-6 5,-10 10,-10 6,0 11,4 10,10l-2 285c0,6 -5,10 -10,10 -6,0 -11,-4 -11,-10l3 -285z"/>
   <path class="fil1" d="M1256 1844c0,-3 4,-6 7,-6 4,0 7,3 7,7 0,9 0,18 0,27 -1,18 -1,37 -3,58 -3,35 -21,64 -21,64 -2,3 -6,4 -10,2 -3,-2 -4,-7 -2,-10 0,0 17,-26 20,-57 1,-22 2,-40 2,-57 0,-9 0,-18 0,-28z"/>
   <path class="fil1" d="M1313 1864c0,-3 3,-6 7,-6 4,0 7,3 7,7 -1,9 -1,18 -1,27 0,18 0,37 -2,58 -3,35 -22,64 -22,64 -2,3 -6,4 -9,2 -3,-2 -4,-6 -2,-10 0,0 16,-26 19,-57 2,-22 2,-40 2,-57 0,-9 1,-18 1,-28z"/>
   <path class="fil1" d="M1372 1875c0,-3 3,-6 7,-6 4,0 7,3 7,7 0,9 -1,18 -1,27 0,18 0,37 -2,58 -3,35 -21,64 -21,64 -2,3 -7,4 -10,2 -3,-2 -4,-7 -2,-10 0,0 17,-26 19,-57 2,-22 2,-40 3,-57 0,-9 0,-18 0,-28z"/>
   <path class="fil1" d="M1433 1886c0,-4 3,-7 7,-6 4,0 7,3 7,7 0,9 0,18 -1,27 0,18 0,37 -2,58 -3,35 -21,63 -21,64 -2,3 -7,4 -10,2 -3,-2 -4,-7 -2,-10 0,0 17,-26 19,-57 2,-22 2,-40 3,-57 0,-9 0,-19 0,-28z"/>
   <path class="fil1" d="M1723 1845c0,-4 3,-7 6,-7 4,0 7,3 8,6 0,10 0,19 0,28 0,17 0,35 2,57 3,31 20,57 20,57 2,3 1,8 -3,10 -3,2 -7,1 -9,-2 0,0 -19,-29 -21,-64 -2,-21 -2,-40 -3,-58 0,-9 0,-18 0,-27z"/>
   <path class="fil1" d="M1666 1865c0,-4 3,-7 7,-7 4,0 7,3 7,6 0,10 0,19 1,28 0,17 0,35 2,57 2,31 19,57 19,57 2,4 1,8 -2,10 -3,2 -7,1 -10,-2 0,0 -18,-29 -21,-64 -2,-21 -2,-40 -2,-58 0,-9 0,-18 -1,-27z"/>
   <path class="fil1" d="M1607 1876c0,-4 3,-7 7,-7 3,0 7,3 7,6 0,10 0,19 0,28 0,17 1,35 3,57 2,31 19,57 19,57 2,3 1,8 -2,10 -3,2 -8,1 -10,-2 0,0 -18,-29 -21,-64 -2,-21 -2,-40 -2,-58 -1,-9 -1,-18 -1,-27z"/>
   <path class="fil1" d="M1546 1887c0,-4 3,-7 7,-7 3,-1 7,2 7,6 0,9 0,19 0,28 0,17 1,35 2,57 3,31 20,57 20,57 2,3 1,8 -2,10 -4,2 -8,1 -10,-2 0,-1 -18,-29 -21,-64 -2,-21 -2,-40 -3,-58 0,-9 0,-18 0,-27z"/>
   <path class="fil1" d="M1490 1886c0,-3 3,-6 7,-6 4,0 7,3 7,6l0 146c0,4 -3,7 -6,7 -4,0 -7,-3 -7,-7l-1 -146z"/>
   <path class="fil12" d="M1124 402c-2,-4 -1,-8 2,-10 4,-2 8,0 10,3 37,70 116,132 207,181 116,63 250,105 346,118 3,1 6,4 5,8 0,4 -4,6 -7,6 -97,-13 -234,-56 -351,-120 -93,-50 -173,-114 -212,-186z"/>
   <path class="fil12" d="M1201 341c-4,0 -7,-3 -7,-6 0,-4 3,-7 7,-7 110,0 214,19 308,50 110,37 208,90 291,149 87,61 157,131 208,215 51,84 81,183 89,303 1,4 -2,7 -6,8 -4,0 -7,-3 -7,-7 -8,-118 -38,-215 -88,-297 -49,-82 -118,-151 -204,-211 -82,-58 -178,-111 -288,-147 -92,-31 -194,-50 -303,-50z"/>
   <path class="fil12" d="M1251 279c-3,1 -8,0 -9,-4 -2,-3 0,-7 3,-9 283,-130 467,0 626,111 39,28 77,55 114,76 3,1 4,6 2,9 -2,3 -6,4 -9,3 -38,-22 -76,-49 -115,-76 -156,-110 -337,-237 -612,-110z"/>
   <path class="fil12" d="M1067 517c0,-4 3,-7 6,-7 4,0 7,3 8,7 2,37 -9,89 -27,141 -18,50 -42,100 -70,135 -53,67 -54,150 -54,151 0,4 -3,7 -7,6 -3,0 -6,-3 -6,-6 0,-1 1,-89 57,-160 26,-33 50,-82 67,-131 18,-50 28,-101 26,-136z"/>
  </g>
 </g>
</svg>
